<svg width="740" height="719" viewBox="0 0 740 719" fill="none" xmlns="http://www.w3.org/2000/svg">
<path fill-rule="evenodd" clip-rule="evenodd" d="M610.441 662.481C610.505 643.41 626.162 627.859 645.233 627.922C680.028 628.038 708.593 599.663 708.709 564.869L708.721 561.375L709.953 191.55L710.199 117.701C710.35 72.4994 673.491 35.3924 628.288 35.2417C583.085 35.0911 545.979 71.9526 545.828 117.153L545.821 119.314C545.791 128.386 538.344 135.784 529.273 135.753C520.201 135.723 512.804 128.276 512.834 119.204L512.864 110.134C512.938 88.0807 494.956 69.9776 472.905 69.9042C450.878 69.8308 432.792 87.7725 432.678 109.79C432.678 109.813 432.548 148.886 432.548 148.911C432.484 167.981 416.828 183.534 397.757 183.47C362.962 183.354 334.398 211.728 334.282 246.525C334.076 308.265 333.41 508.079 333.205 569.82C333.054 615.023 369.916 652.129 415.116 652.28C460.317 652.43 497.425 615.571 497.576 570.368C497.606 561.296 505.055 553.899 514.125 553.929C523.194 553.959 530.593 561.406 530.563 570.478L530.257 662.214C530.081 714.675 610.267 714.942 610.441 662.481Z" fill="#EB427E"/>
<path fill-rule="evenodd" clip-rule="evenodd" d="M118.813 52.5504C118.915 71.6212 103.395 87.308 84.3239 87.4108C49.5294 87.5982 21.2122 116.221 21.3997 151.016L21.4185 154.51L23.411 524.331L23.8088 598.179C24.0523 643.381 61.2331 680.165 106.436 679.921C151.639 679.678 188.422 642.494 188.178 597.294L188.167 595.133C188.118 586.061 195.5 578.599 204.571 578.55C213.643 578.501 221.104 585.883 221.153 594.955L221.202 604.026C221.321 626.078 239.46 644.024 261.511 643.905C283.537 643.787 301.466 625.688 301.388 603.67C301.388 603.647 301.178 564.574 301.178 564.549C301.075 545.48 316.595 529.791 335.665 529.688C370.461 529.501 398.776 500.879 398.589 466.082C398.256 404.343 397.179 204.531 396.847 142.79C396.603 97.5875 359.42 60.8043 314.219 61.0478C269.019 61.2913 232.234 98.473 232.477 143.675C232.526 152.747 225.142 160.209 216.072 160.258C207.003 160.307 199.54 152.925 199.491 143.853L198.996 52.1184C198.715 -0.34281 118.53 0.0891948 118.813 52.5504Z" fill="#594CDA"/>
<path fill-rule="evenodd" clip-rule="evenodd" d="M71.1725 403.375C90.2433 403.45 105.785 419.117 105.709 438.188C105.572 472.982 133.929 501.566 168.724 501.703L172.218 501.717L542.042 503.176L615.891 503.468C661.092 503.646 698.222 466.81 698.4 421.607C698.579 376.404 661.74 339.275 616.539 339.097L614.378 339.088C605.306 339.053 597.914 331.601 597.95 322.53C597.985 313.458 605.437 306.066 614.509 306.102L623.58 306.137C645.632 306.224 663.746 288.254 663.833 266.203C663.92 244.176 645.99 226.079 623.972 225.951C623.949 225.951 584.876 225.797 584.851 225.797C565.781 225.722 550.238 210.056 550.313 190.985C550.451 156.19 522.094 127.609 487.298 127.471C425.558 127.228 225.745 126.439 164.003 126.195C118.8 126.017 81.6718 162.856 81.4934 208.056C81.315 253.257 118.152 290.388 163.354 290.566C172.426 290.602 179.819 298.055 179.783 307.125C179.747 316.194 172.296 323.589 163.224 323.553L71.4889 323.191C19.0274 322.983 18.7109 403.168 71.1725 403.375Z" fill="url(#paint0_linear_222_1331)"/>
<path fill-rule="evenodd" clip-rule="evenodd" d="M568.773 464.456L574.311 464.478C575.327 464.482 576.153 465.315 576.149 466.331L576.128 471.87C576.124 472.882 575.29 473.711 574.274 473.707L568.736 473.685C567.721 473.681 566.896 472.846 566.9 471.834L566.921 466.295C566.925 465.279 567.758 464.452 568.773 464.456Z" fill="white"/>
<path fill-rule="evenodd" clip-rule="evenodd" d="M587.689 464.531L593.224 464.553C594.239 464.557 595.067 465.39 595.063 466.406L595.041 471.945C595.037 472.957 594.203 473.786 593.188 473.782L587.652 473.76C586.635 473.756 585.809 472.921 585.813 471.909L585.835 466.37C585.839 465.354 586.672 464.527 587.689 464.531Z" fill="white"/>
<path fill-rule="evenodd" clip-rule="evenodd" d="M606.602 464.605L612.138 464.627C613.153 464.631 613.981 465.465 613.977 466.481L613.955 472.02C613.951 473.032 613.117 473.86 612.102 473.856L606.566 473.834C605.55 473.83 604.723 472.995 604.727 471.983L604.749 466.444C604.753 465.428 605.586 464.601 606.602 464.605Z" fill="white"/>
<path fill-rule="evenodd" clip-rule="evenodd" d="M625.515 464.68L631.053 464.702C632.068 464.706 632.894 465.539 632.89 466.555L632.868 472.094C632.864 473.106 632.032 473.935 631.017 473.931L625.479 473.909C624.464 473.905 623.636 473.07 623.64 472.058L623.662 466.519C623.666 465.503 624.5 464.676 625.515 464.68Z" fill="white"/>
<path fill-rule="evenodd" clip-rule="evenodd" d="M443.707 266.723L424.471 266.647C423.579 266.644 422.853 265.911 422.857 265.02C422.86 264.128 423.593 263.402 424.484 263.405L443.72 263.481C444.612 263.485 445.336 264.217 445.332 265.109C445.329 266.001 444.598 266.727 443.707 266.723Z" fill="white"/>
<path fill-rule="evenodd" clip-rule="evenodd" d="M443.734 260.024L432.062 259.978C431.17 259.975 430.444 259.243 430.447 258.351C430.451 257.459 431.182 256.733 432.074 256.736L443.746 256.782C444.638 256.786 445.362 257.519 445.359 258.41C445.355 259.302 444.625 260.028 443.734 260.024Z" fill="white"/>
<path fill-rule="evenodd" clip-rule="evenodd" d="M151.072 463.994L131.837 463.918C130.945 463.915 130.219 463.183 130.223 462.291C130.226 461.4 130.958 460.675 131.85 460.678L151.085 460.754C151.976 460.757 152.703 461.489 152.7 462.379C152.696 463.271 151.964 463.997 151.072 463.994Z" fill="white"/>
<path fill-rule="evenodd" clip-rule="evenodd" d="M151.099 457.295L139.429 457.249C138.537 457.245 137.811 456.513 137.814 455.621C137.818 454.73 138.55 454.003 139.442 454.007L151.112 454.053C152.003 454.056 152.73 454.789 152.726 455.68C152.723 456.572 151.991 457.298 151.099 457.295Z" fill="white"/>
<path fill-rule="evenodd" clip-rule="evenodd" d="M196.119 233.323L215.353 233.399C216.245 233.402 216.971 234.135 216.968 235.026C216.964 235.918 216.232 236.644 215.34 236.641L196.107 236.565C195.215 236.561 194.488 235.829 194.492 234.937C194.496 234.045 195.227 233.319 196.119 233.323Z" fill="white"/>
<path fill-rule="evenodd" clip-rule="evenodd" d="M196.084 242.323L207.754 242.369C208.645 242.372 209.372 243.104 209.368 243.996C209.365 244.888 208.633 245.614 207.741 245.611L196.071 245.565C195.179 245.561 194.453 244.828 194.456 243.937C194.46 243.045 195.192 242.319 196.084 242.323Z" fill="white"/>
<path fill-rule="evenodd" clip-rule="evenodd" d="M447.609 156.048C447.611 155.508 448.052 155.073 448.591 155.075C449.131 155.077 449.568 155.517 449.566 156.056L449.549 160.457C449.546 160.998 449.106 161.435 448.566 161.433C448.027 161.43 447.589 160.99 447.592 160.45L447.609 156.048ZM440.925 159.596C440.543 159.213 440.546 158.592 440.93 158.211C441.314 157.832 441.934 157.834 442.313 158.217L445.415 161.343C445.794 161.726 445.792 162.346 445.41 162.726C445.024 163.106 444.405 163.103 444.025 162.721L440.925 159.596ZM438.704 166.831C438.166 166.829 437.728 166.388 437.73 165.848C437.732 165.307 438.174 164.871 438.712 164.873L443.115 164.89C443.656 164.892 444.09 165.333 444.088 165.873C444.086 166.413 443.648 166.85 443.107 166.848L438.704 166.831ZM442.253 173.515C441.87 173.894 441.25 173.892 440.87 173.509C440.488 173.126 440.491 172.505 440.875 172.124L444 169.025C444.383 168.643 445.002 168.646 445.385 169.03C445.764 169.414 445.762 170.034 445.379 170.413L442.253 173.515ZM449.488 175.733C449.486 176.272 449.045 176.71 448.505 176.708C447.966 176.705 447.529 176.265 447.531 175.726L447.549 171.324C447.551 170.784 447.991 170.346 448.53 170.349C449.07 170.351 449.508 170.791 449.506 171.331L449.488 175.733ZM456.171 172.185C456.553 172.568 456.55 173.189 456.166 173.57C455.782 173.949 455.163 173.947 454.783 173.564L451.682 170.438C451.302 170.055 451.304 169.435 451.688 169.055C452.071 168.674 452.692 168.676 453.073 169.06L456.171 172.185ZM458.389 164.95C458.93 164.953 459.367 165.393 459.365 165.933C459.363 166.473 458.922 166.911 458.381 166.908L453.98 166.891C453.44 166.889 453.005 166.448 453.007 165.908C453.009 165.367 453.449 164.931 453.988 164.933L458.389 164.95ZM454.843 158.266C455.227 157.887 455.846 157.889 456.226 158.272C456.608 158.655 456.605 159.276 456.221 159.657L453.097 162.757C452.714 163.136 452.093 163.134 451.712 162.751C451.332 162.368 451.334 161.749 451.718 161.368L454.843 158.266Z" fill="#84B3D2"/>
<path fill-rule="evenodd" clip-rule="evenodd" d="M430.112 217.83L430.104 219.964L432.241 219.973C433.132 219.976 433.858 220.708 433.854 221.6C433.851 222.491 433.119 223.218 432.228 223.215L430.091 223.206L430.082 225.34C430.079 226.232 429.348 226.958 428.457 226.955C427.565 226.951 426.84 226.219 426.843 225.327L426.852 223.193L424.715 223.185C423.824 223.181 423.098 222.45 423.101 221.558C423.105 220.666 423.837 219.939 424.728 219.943L426.865 219.951L426.873 217.817C426.877 216.925 427.607 216.199 428.499 216.203C429.39 216.206 430.116 216.938 430.112 217.83Z" fill="white"/>
<path fill-rule="evenodd" clip-rule="evenodd" d="M108.631 212.007C108.634 211.467 109.074 211.03 109.614 211.032C110.154 211.034 110.591 211.475 110.588 212.015L110.571 216.415C110.569 216.956 110.129 217.392 109.589 217.39C109.048 217.388 108.612 216.947 108.614 216.407L108.631 212.007ZM101.948 215.554C101.567 215.171 101.569 214.551 101.954 214.17C102.337 213.789 102.956 213.792 103.339 214.175L106.438 217.301C106.818 217.683 106.816 218.304 106.433 218.685C106.05 219.065 105.431 219.063 105.048 218.679L101.948 215.554ZM99.7298 222.788C99.1888 222.786 98.7535 222.345 98.7557 221.805C98.7578 221.265 99.1975 220.829 99.7375 220.831L104.138 220.849C104.679 220.851 105.116 221.29 105.114 221.831C105.111 222.37 104.671 222.808 104.131 222.806L99.7298 222.788ZM103.278 229.472C102.894 229.853 102.274 229.85 101.893 229.467C101.512 229.084 101.514 228.464 101.899 228.083L105.023 224.983C105.408 224.603 106.028 224.605 106.408 224.989C106.788 225.371 106.785 225.991 106.403 226.373L103.278 229.472ZM110.511 231.691C110.509 232.231 110.069 232.668 109.529 232.666C108.988 232.664 108.552 232.223 108.554 231.683L108.571 227.281C108.573 226.741 109.014 226.304 109.554 226.306C110.094 226.308 110.53 226.749 110.528 227.289L110.511 231.691ZM117.196 228.142C117.575 228.527 117.573 229.147 117.19 229.526C116.808 229.907 116.186 229.904 115.806 229.521L112.707 226.397C112.325 226.012 112.328 225.392 112.712 225.013C113.095 224.632 113.715 224.634 114.095 225.018L117.196 228.142ZM119.414 220.91C119.953 220.912 120.391 221.351 120.388 221.892C120.386 222.432 119.946 222.869 119.407 222.867L115.005 222.85C114.465 222.847 114.027 222.407 114.03 221.867C114.032 221.327 114.472 220.89 115.012 220.893L119.414 220.91ZM115.867 214.225C116.249 213.844 116.871 213.847 117.251 214.23C117.63 214.615 117.628 215.235 117.245 215.614L114.12 218.715C113.736 219.096 113.117 219.093 112.737 218.71C112.355 218.325 112.358 217.705 112.742 217.326L115.867 214.225Z" fill="#84B3D2"/>
<path fill-rule="evenodd" clip-rule="evenodd" d="M76.5297 357.587L76.5212 359.72L78.6552 359.728C79.5462 359.732 80.2733 360.464 80.2698 361.356C80.2663 362.248 79.5344 362.972 78.6424 362.968L76.5084 362.96L76.5 365.097C76.4965 365.988 75.7646 366.715 74.8726 366.711C73.9806 366.708 73.2545 365.975 73.258 365.084L73.2665 362.947L71.1305 362.939C70.2395 362.935 69.5124 362.205 69.5159 361.313C69.5194 360.42 70.2513 359.695 71.1433 359.699L73.2793 359.707L73.2877 357.574C73.2912 356.679 74.0231 355.956 74.9151 355.959C75.8061 355.963 76.5332 356.693 76.5297 357.587Z" fill="white"/>
<path fill-rule="evenodd" clip-rule="evenodd" d="M139.483 177.589L139.474 179.725L141.608 179.733C142.5 179.737 143.226 180.468 143.223 181.359C143.219 182.251 142.486 182.977 141.595 182.973L139.461 182.965L139.453 185.101C139.449 185.993 138.717 186.719 137.826 186.716C136.934 186.712 136.207 185.98 136.211 185.088L136.219 182.952L134.083 182.944C133.192 182.94 132.465 182.208 132.469 181.316C132.472 180.425 133.205 179.7 134.096 179.704L136.232 179.712L136.241 177.576C136.244 176.684 136.976 175.96 137.868 175.964C138.759 175.967 139.486 176.698 139.483 177.589Z" fill="white"/>
<path fill-rule="evenodd" clip-rule="evenodd" d="M334.141 139.456L334.132 141.59L336.268 141.598C337.16 141.602 337.886 142.334 337.883 143.226C337.879 144.118 337.147 144.844 336.255 144.84L334.119 144.832L334.111 146.966C334.107 147.858 333.377 148.584 332.486 148.58C331.594 148.577 330.867 147.845 330.871 146.953L330.879 144.819L328.743 144.81C327.851 144.807 327.125 144.075 327.129 143.183C327.132 142.292 327.864 141.565 328.756 141.568L330.892 141.577L330.901 139.443C330.904 138.551 331.637 137.825 332.528 137.828C333.419 137.832 334.144 138.564 334.141 139.456Z" fill="white"/>
<path fill-rule="evenodd" clip-rule="evenodd" d="M658.226 376.28L658.218 378.415L660.352 378.423C661.244 378.427 661.97 379.159 661.967 380.05C661.963 380.943 661.23 381.669 660.339 381.665L658.205 381.657L658.197 383.792C658.193 384.683 657.461 385.41 656.569 385.406C655.677 385.403 654.951 384.67 654.955 383.779L654.963 381.644L652.829 381.635C651.937 381.632 651.211 380.9 651.215 380.008C651.218 379.117 651.951 378.39 652.842 378.393L654.976 378.402L654.984 376.267C654.988 375.376 655.72 374.651 656.612 374.654C657.504 374.658 658.23 375.389 658.226 376.28Z" fill="white"/>
<path fill-rule="evenodd" clip-rule="evenodd" d="M556.145 285.107L556.137 287.241L558.272 287.25C559.164 287.253 559.889 287.986 559.886 288.877C559.882 289.768 559.15 290.495 558.259 290.491L556.124 290.483L556.116 292.617C556.112 293.509 555.38 294.235 554.488 294.232C553.597 294.228 552.871 293.495 552.875 292.604L552.883 290.47L550.748 290.462C549.856 290.458 549.13 289.725 549.134 288.834C549.137 287.942 549.869 287.216 550.761 287.22L552.896 287.228L552.904 285.094C552.908 284.203 553.64 283.476 554.531 283.48C555.422 283.483 556.149 284.216 556.145 285.107Z" fill="white"/>
<path fill-rule="evenodd" clip-rule="evenodd" d="M627.456 256.606C627.458 256.065 627.898 255.63 628.438 255.632C628.979 255.634 629.415 256.073 629.412 256.614L629.395 261.015C629.393 261.556 628.954 261.993 628.413 261.991C627.873 261.989 627.436 261.548 627.438 261.007L627.456 256.606ZM620.772 260.154C620.391 259.771 620.393 259.15 620.778 258.769C621.161 258.39 621.78 258.392 622.163 258.775L625.262 261.901C625.642 262.283 625.64 262.903 625.256 263.284C624.872 263.663 624.252 263.661 623.872 263.278L620.772 260.154ZM618.555 267.388C618.014 267.386 617.579 266.946 617.581 266.406C617.583 265.865 618.022 265.427 618.563 265.429L622.964 265.447C623.504 265.449 623.94 265.89 623.938 266.431C623.936 266.971 623.496 267.408 622.956 267.406L618.555 267.388ZM622.103 274.071C621.717 274.452 621.098 274.449 620.718 274.066C620.336 273.683 620.339 273.061 620.723 272.682L623.847 269.582C624.23 269.201 624.85 269.203 625.231 269.588C625.612 269.97 625.609 270.59 625.226 270.971L622.103 274.071ZM629.335 276.288C629.333 276.829 628.894 277.266 628.353 277.264C627.813 277.262 627.376 276.821 627.378 276.28L627.395 271.88C627.397 271.34 627.838 270.903 628.378 270.905C628.919 270.907 629.354 271.348 629.352 271.888L629.335 276.288ZM636.021 272.742C636.4 273.125 636.398 273.747 636.015 274.126C635.632 274.507 635.01 274.504 634.63 274.121L631.531 270.996C631.149 270.612 631.152 269.993 631.536 269.613C631.92 269.231 632.539 269.234 632.919 269.618L636.021 272.742ZM638.238 265.507C638.776 265.509 639.215 265.95 639.213 266.491C639.21 267.031 638.77 267.468 638.231 267.466L633.828 267.449C633.289 267.447 632.851 267.006 632.854 266.466C632.856 265.925 633.296 265.488 633.836 265.49L638.238 265.507ZM634.691 258.824C635.073 258.444 635.695 258.447 636.076 258.829C636.455 259.213 636.453 259.834 636.07 260.214L632.944 263.314C632.561 263.694 631.942 263.691 631.561 263.309C631.18 262.925 631.182 262.306 631.567 261.926L634.691 258.824Z" fill="#84B3D2"/>
<path fill-rule="evenodd" clip-rule="evenodd" d="M663.958 434.643C663.96 434.1 664.4 433.665 664.94 433.667C665.48 433.669 665.917 434.109 665.915 434.651L665.898 439.051C665.896 439.59 665.454 440.028 664.915 440.026C664.375 440.024 663.939 439.582 663.941 439.043L663.958 434.643ZM657.273 438.188C656.893 437.806 656.895 437.185 657.279 436.803C657.662 436.424 658.281 436.426 658.663 436.809L661.762 439.934C662.143 440.319 662.14 440.938 661.757 441.317C661.373 441.699 660.754 441.696 660.374 441.312L657.273 438.188ZM655.055 445.424C654.515 445.422 654.079 444.98 654.081 444.44C654.083 443.901 654.523 443.463 655.062 443.465L659.464 443.482C660.004 443.484 660.441 443.925 660.439 444.465C660.437 445.006 659.997 445.443 659.456 445.441L655.055 445.424ZM658.603 452.106C658.218 452.487 657.599 452.485 657.218 452.1C656.838 451.718 656.84 451.097 657.224 450.715L660.349 447.617C660.732 447.235 661.351 447.238 661.732 447.622C662.112 448.007 662.11 448.626 661.726 449.007L658.603 452.106ZM665.837 454.326C665.835 454.865 665.394 455.301 664.855 455.299C664.315 455.296 663.878 454.857 663.88 454.319L663.898 449.917C663.9 449.376 664.34 448.938 664.88 448.941C665.42 448.943 665.857 449.383 665.855 449.924L665.837 454.326ZM672.521 450.776C672.901 451.16 672.899 451.781 672.515 452.161C672.132 452.542 671.511 452.54 671.13 452.155L668.031 449.032C667.649 448.648 667.651 448.029 668.037 447.647C668.42 447.266 669.039 447.268 669.422 447.653L672.521 450.776ZM674.74 443.542C675.28 443.545 675.715 443.985 675.713 444.525C675.711 445.066 675.271 445.504 674.732 445.501L670.33 445.484C669.79 445.482 669.352 445.04 669.354 444.5C669.356 443.961 669.798 443.523 670.338 443.525L674.74 443.542ZM671.19 436.858C671.574 436.479 672.195 436.481 672.575 436.864C672.956 437.248 672.953 437.869 672.57 438.249L669.447 441.348C669.061 441.729 668.442 441.727 668.062 441.342C667.679 440.96 667.682 440.341 668.067 439.959L671.19 436.858Z" fill="#84B3D2"/>
<path d="M465.19 201.963C464.694 204.61 464.205 207.258 463.943 210.035C470.579 206.023 477.011 201.675 483.209 197.016C478.13 197.018 473.055 196.239 468.21 194.709C467.251 197.074 465.694 199.247 465.19 201.963Z" fill="#A5B9CF"/>
<path d="M463.379 193.491C463.343 198.562 463.501 204.78 463.61 209.943C465.956 206.05 468.124 201.018 470.485 197.079C481.215 194.343 493.764 188.699 503.049 182.662C490.34 184.73 475.617 189.364 463.379 193.491Z" fill="#C3D2DE"/>
<path d="M470.31 197.124C481.247 192.127 492.297 187.205 503.421 182.543C498.795 189.19 493.835 195.608 489.05 202.049C482.594 200.968 476.223 199.417 470.31 197.124Z" fill="white"/>
<path d="M503.376 182.535C490.185 187.584 476.965 192.102 463.408 195.753C457.938 194.684 452.919 193.093 447.667 190.726C466.045 187.254 484.571 184.564 503.376 182.535Z" fill="white"/>
<path d="M457.575 214.164C447.872 230.787 437.22 245.487 425.375 253.862C413.523 262.238 400.335 263.907 388.653 254.86C375.527 244.68 365.564 222.405 354.277 205.075C342.803 187.454 329.427 174.532 315.258 171.446C301.089 168.359 286.11 175.763 275.042 194.771C257.664 224.599 252.741 278.493 258.722 323.719C265.111 372.038 282.855 412.954 305.147 430.755" stroke="white" stroke-miterlimit="10" stroke-linecap="round" stroke-linejoin="round" stroke-dasharray="8 24 8 24 8 24"/>
<path d="M226.02 504.171C260.588 504.307 288.632 499.038 288.659 492.401C288.685 485.764 260.683 480.273 226.115 480.137C191.547 480 163.503 485.27 163.477 491.907C163.451 498.544 191.452 504.035 226.02 504.171Z" fill="#5E96D6"/>
<path d="M219.442 497.419C220.562 498.463 223.963 498.462 226.092 499.525C241.108 493.542 253.859 488.612 268.215 482.687C269.844 477.796 270.647 472.455 269.3 467.477C267.945 462.5 264.099 457.99 259.49 456.317C244.83 460.328 230.178 464.347 215.518 468.358C216.591 477.358 217.664 486.351 219.442 497.419Z" fill="#F7AA36"/>
<path d="M174.843 495.231C178.794 488.574 178.995 480.064 176.182 473.464C191.236 473.402 206.294 474.236 221.243 475.942C223.565 476.209 225.955 476.515 228.008 477.578C232.796 480.057 234.365 486.386 232.107 491.069C229.849 495.752 224.554 498.707 219.663 499.105C204.619 496.73 189.364 495.562 174.843 495.231Z" fill="#FEEDE3"/>
<path d="M230.479 480.412C215.441 480.277 200.41 480.134 185.372 479.999C200.4 480.764 215.421 481.537 230.449 482.302C230.2 481.762 229.96 481.215 230.479 480.412Z" fill="#DBB9AB"/>
<path d="M233.119 484.711C221.376 484.43 209.633 484.148 197.89 483.866C209.51 484.679 221.129 485.499 232.748 486.312C232.75 485.78 232.76 485.249 233.119 484.711Z" fill="#DBB9AB"/>
<path d="M232.989 488.78C223.926 488.501 214.87 488.23 205.807 487.952C214.672 488.442 223.528 489.168 232.354 490.114C232.386 489.674 232.425 489.226 232.989 488.78Z" fill="#DBB9AB"/>
<path d="M230.53 492.475C214.894 491.958 199.265 491.433 183.628 490.916C198.914 491.925 214.199 492.934 229.484 493.944C229.676 493.534 229.867 493.133 230.53 492.475Z" fill="#DBB9AB"/>
<path d="M173.2 470.977C189.834 470.777 206.479 471.526 223.334 472.967C225.763 473.174 228.09 474.102 229.837 475.703C233.256 478.836 235.174 483.459 234.632 487.936C234.091 492.428 231.114 496.539 227.164 498.952C225.186 500.167 222.808 500.666 220.455 500.49C204.601 499.296 188.747 498.095 172.81 496.741C172.815 495.565 172.819 494.388 173.57 492.835C188.323 493.986 203.076 495.138 218.498 496.292C223.886 496.692 228.97 493.38 230.06 488.397C230.161 487.926 230.231 487.448 230.256 486.962C230.288 486.484 230.275 486.006 230.231 485.528C229.758 480.447 225.096 476.618 219.684 476.444L173.503 474.972C173.493 473.871 173.489 472.762 173.2 470.977Z" fill="#FFBF46"/>
<path d="M263.317 452.438C262.851 454.979 261.885 457.397 260.919 459.8C252.936 462.888 244.733 465.786 236.402 468.464C235.361 468.801 234.312 469.131 233.263 469.461C232.336 469.753 231.408 470.038 230.481 470.323C229.463 470.638 228.436 470.953 227.41 471.26C223.572 472.406 219.704 473.514 215.828 474.562C214.718 472.971 213.95 471.518 213.189 470.057C215.182 461.267 215.256 454.078 213.757 447.217C228.138 444.7 242.511 442.183 256.884 439.674C259.347 440.572 261.534 442.494 262.618 444.836C263.694 447.186 263.774 449.897 263.317 452.438Z" fill="#3878E8"/>
<path d="M233.324 459.638C233.325 463.365 232.323 467.081 230.481 470.323C229.463 470.638 228.436 470.953 227.41 471.26C229.254 467.631 230.401 463.688 230.348 459.74C230.276 454.995 228.472 450.289 225.351 446.708C226.885 446.608 227.713 446.444 228.541 446.281C231.647 449.982 233.328 454.802 233.324 459.638Z" fill="#FFBF46"/>
<path d="M238.84 458.521C238.834 461.967 237.986 465.403 236.402 468.464C235.361 468.801 234.312 469.131 233.263 469.461C234.909 466.021 235.918 462.32 235.864 458.623C235.792 453.878 233.988 449.172 230.867 445.591C232.401 445.491 233.229 445.327 234.057 445.164C237.163 448.865 238.844 453.685 238.84 458.521Z" fill="#FFBF46"/>
<path d="M170.73 469.806C174.421 463.824 174.603 456.18 171.969 450.255C186.006 450.205 200.047 450.951 213.987 452.486C216.157 452.722 218.38 452.997 220.289 453.953C224.752 456.18 226.218 461.864 224.113 466.069C222.009 470.274 217.072 472.927 212.515 473.281C198.495 471.153 184.272 470.103 170.73 469.806Z" fill="#FEEDE3"/>
<path d="M222.61 456.506C212.331 456.397 202.053 456.281 191.775 456.172C202.043 456.85 212.312 457.528 222.58 458.206C222.415 457.712 222.25 457.226 222.61 456.506Z" fill="#DBB9AB"/>
<path d="M225.069 460.365C211.095 460.097 197.127 459.829 183.152 459.562C196.974 460.307 210.802 461.052 224.623 461.798C224.633 461.327 224.642 460.849 225.069 460.365Z" fill="#DBB9AB"/>
<path d="M224.949 464.016C214.451 463.762 203.96 463.5 193.462 463.246C203.732 463.697 213.985 464.352 224.215 465.22C224.255 464.818 224.294 464.415 224.949 464.016Z" fill="#DBB9AB"/>
<path d="M222.651 467.339C209.291 466.877 195.925 466.414 182.565 465.944C195.627 466.845 208.696 467.747 221.757 468.657C221.926 468.293 222.087 467.929 222.651 467.339Z" fill="#DBB9AB"/>
<path d="M169.192 448.02C184.702 447.846 200.224 448.515 215.941 449.814C218.202 449.998 220.378 450.834 222.004 452.275C225.197 455.089 226.979 459.241 226.478 463.262C225.976 467.299 223.198 470.985 219.515 473.157C217.674 474.243 215.455 474.697 213.262 474.537C198.478 473.461 183.694 472.378 168.827 471.165C168.831 470.11 168.835 469.055 169.532 467.653C183.291 468.687 197.05 469.728 211.425 470.764C216.449 471.125 221.19 468.153 222.202 463.671C222.295 463.246 222.357 462.821 222.389 462.381C222.414 461.948 222.408 461.523 222.364 461.09C221.919 456.533 217.575 453.085 212.527 452.928L169.458 451.604C169.462 450.625 169.459 449.631 169.192 448.02Z" fill="#3C97FE"/>
<path d="M260.963 431.278C260.961 435.537 259.002 439.606 256.125 443.421C244.31 446.031 232.487 448.634 220.756 451.101C212.118 439.353 198.227 435.168 188.385 430.309C187.824 430.033 187.278 429.758 186.748 429.475C183.953 427.999 181.157 426.515 178.955 424.806C193.006 423.016 207.05 421.227 221.003 419.422C231.826 419.974 242.657 420.525 254.02 420.843C254.286 420.852 254.544 420.86 254.81 420.869C258.689 422.63 260.957 427.02 260.963 431.278Z" fill="#C42D97"/>
<path d="M240.415 442.182C238.349 442.652 236.274 443.115 234.208 443.585C235.467 439.923 235.067 435.595 233.075 432.421C235.119 432.042 237.162 431.663 239.509 431.444C241.524 434.481 241.979 438.507 240.415 442.182Z" fill="#F7AA36"/>
<path d="M254.02 420.843C241.313 424.331 228.285 426.648 215.155 427.75L206.197 431.48C200.243 431.988 194.217 431.577 188.385 430.309C187.824 430.033 187.278 429.758 186.748 429.475C183.953 427.999 181.157 426.515 178.955 424.806C193.006 423.016 207.05 421.227 221.003 419.422C231.826 419.974 242.657 420.525 254.02 420.843Z" fill="#F74DB3"/>
<path d="M227.908 424.156C221.328 423.667 214.74 423.186 208.16 422.697C203.824 423.127 199.867 423.567 195.94 424.197C202.817 424.384 210.922 425.084 217.714 425.581C221.345 425.132 224.033 424.794 227.908 424.156Z" fill="#FEEDE3"/>
<path d="M179.498 446.846C182.847 440.862 183.014 433.218 180.63 427.295C193.362 427.239 206.097 427.98 218.731 429.51C220.696 429.746 222.715 430.019 224.449 430.975C228.494 433.2 229.823 438.884 227.909 443.09C225.994 447.295 221.52 449.95 217.389 450.305C204.674 448.183 191.78 447.137 179.498 446.846Z" fill="#FEEDE3"/>
<path d="M226.55 433.526C214.457 433.41 202.364 433.287 190.279 433.171C202.362 433.856 214.445 434.541 226.528 435.227C226.325 434.733 226.129 434.246 226.55 433.526Z" fill="#DBB9AB"/>
<path d="M228.781 437.384C219.232 437.134 209.683 436.884 200.134 436.633C209.583 437.361 219.031 438.09 228.48 438.818C228.482 438.347 228.491 437.869 228.781 437.384Z" fill="#DBB9AB"/>
<path d="M228.668 441.035C216.272 440.774 203.869 440.505 191.473 440.243C203.61 440.701 215.724 441.364 227.806 442.239C227.853 441.837 227.892 441.435 228.668 441.035Z" fill="#DBB9AB"/>
<path d="M226.583 444.359C219.099 443.92 211.616 443.481 204.132 443.033C211.447 443.913 218.762 444.792 226.084 445.678C226.177 445.314 226.269 444.95 226.583 444.359Z" fill="#DBB9AB"/>
<path d="M178.111 425.068C192.179 424.888 206.251 425.551 220.51 426.845C222.567 427.028 224.53 427.863 226.012 429.303C228.901 432.116 230.517 436.267 230.061 440.289C229.604 444.326 227.085 448.013 223.743 450.186C222.069 451.273 220.063 451.728 218.075 451.568C204.672 450.498 191.262 449.42 177.785 448.213C177.789 447.158 177.793 446.103 178.429 444.701C190.905 445.73 203.381 446.766 216.419 447.796C220.98 448.156 225.281 445.182 226.195 440.699C226.28 440.274 226.335 439.849 226.359 439.409C226.384 438.977 226.378 438.551 226.342 438.118C225.942 433.562 222.001 430.115 217.423 429.96L178.37 428.652C178.359 427.665 178.355 426.671 178.111 425.068Z" fill="#EA33AA"/>
<path d="M387.391 508.423C430.37 508.593 465.239 501.593 465.273 492.789C465.308 483.984 430.496 476.709 387.517 476.54C344.539 476.37 309.67 483.37 309.635 492.174C309.6 500.979 344.413 508.254 387.391 508.423Z" fill="#5E96D6"/>
<path d="M406.498 487.104C406.519 481.585 419.346 476.443 446.387 476.55C473.427 476.657 495.334 481.222 495.312 486.741C495.29 492.26 473.349 496.652 446.308 496.546C419.268 496.439 406.476 492.623 406.498 487.104Z" fill="#5E96D6"/>
<path d="M486.515 455.475C491.282 463.344 490.882 474.191 485.896 481.641C479.669 485.883 473.659 489.047 467.291 492.651C466.327 483.021 464.882 474.05 463.918 464.42C463.86 463.797 463.809 463.122 464.153 462.607C464.496 462.092 465.135 461.897 465.72 461.74C472.043 460.034 478.366 458.336 486.515 455.475Z" fill="#C42D97"/>
<path d="M414.753 489.991C418.533 482.468 418.342 473.084 415.106 465.958C430.71 465.169 446.355 465.36 461.928 466.522C464.349 466.707 466.838 466.929 469.013 468C474.089 470.503 476.021 477.396 473.897 482.664C471.773 487.931 466.43 491.433 461.379 492.111C445.688 490.212 429.816 489.664 414.753 489.991Z" fill="#FEEDE3"/>
<path d="M471.719 471.002C456.89 471.536 442.062 472.077 427.234 472.611C442.082 472.768 456.93 472.925 471.771 473.082C471.515 472.497 471.244 471.911 471.719 471.002Z" fill="#DBB9AB"/>
<path d="M474.661 475.614C462.939 475.849 451.224 476.076 439.502 476.311C451.123 476.668 462.744 477.032 474.366 477.39C474.345 476.805 474.332 476.228 474.661 475.614Z" fill="#DBB9AB"/>
<path d="M474.719 480.101C459.504 480.474 444.297 480.854 429.082 481.227C443.977 481.103 458.871 481.238 473.726 481.623C473.759 481.122 473.791 480.629 474.719 480.101Z" fill="#DBB9AB"/>
<path d="M472.342 484.29C463.141 484.17 453.949 484.05 444.748 483.93C453.764 484.596 462.78 485.262 471.796 485.927C471.889 485.48 471.982 485.025 472.342 484.29Z" fill="#DBB9AB"/>
<path d="M411.89 463.357C429.127 462.339 446.412 462.362 463.953 463.145C466.481 463.253 468.937 464.174 470.82 465.852C474.512 469.138 476.717 474.135 476.371 479.09C476.025 484.061 473.129 488.734 469.155 491.588C467.16 493.015 464.721 493.688 462.277 493.603C445.79 493.044 429.296 492.486 412.704 491.76C412.656 490.469 412.6 489.171 413.306 487.42C428.653 487.982 444.009 488.543 460.04 489.077C465.649 489.259 470.759 485.369 471.646 479.823C471.732 479.3 471.779 478.769 471.781 478.237C471.791 477.706 471.755 477.182 471.689 476.658C470.959 471.09 465.942 467.085 460.324 467.162L412.381 467.754C412.333 466.532 412.277 465.317 411.89 463.357Z" fill="#EA33AA"/>
<path d="M470.019 463.207C471.415 463.394 472.803 463.582 474.389 463.763C479.628 461.59 484.875 459.416 490.265 457.509C493.339 453.688 495.56 448.922 495.473 443.956C495.394 438.991 492.651 433.924 488.217 432.176C481.177 432.786 474.145 433.396 467.105 434.013C468.861 442.925 470.071 451.964 470.019 463.207Z" fill="#3878E8"/>
<path d="M416.155 461.81C420.386 455.26 420.305 447.091 416.883 440.891C433.898 440.184 450.941 440.319 467.896 441.312C470.53 441.467 473.239 441.652 475.596 442.588C481.092 444.758 483.095 450.755 480.708 455.339C478.322 459.922 472.449 462.981 466.935 463.582C449.861 461.958 432.577 461.495 416.155 461.81Z" fill="#FEEDE3"/>
<path d="M478.501 445.195C466.042 445.556 453.583 445.917 441.116 446.277C453.588 446.524 466.06 446.763 478.539 447.01C478.321 446.493 478.103 445.983 478.501 445.195Z" fill="#DBB9AB"/>
<path d="M481.643 449.201C464.698 449.567 447.752 449.932 430.814 450.298C447.598 450.448 464.382 450.598 481.167 450.748C481.153 450.247 481.148 449.738 481.643 449.201Z" fill="#DBB9AB"/>
<path d="M481.643 453.103C468.911 453.318 456.187 453.534 443.455 453.749C455.921 453.753 468.377 453.977 480.803 454.42C480.827 453.995 480.859 453.563 481.643 453.103Z" fill="#DBB9AB"/>
<path d="M478.987 456.759C462.771 456.885 446.563 457.011 430.347 457.144C446.219 457.495 462.084 457.854 477.956 458.205C478.148 457.811 478.331 457.409 478.987 456.759Z" fill="#DBB9AB"/>
<path d="M413.43 438.637C432.223 437.725 451.065 437.716 470.162 438.368C472.918 438.462 475.579 439.255 477.608 440.713C481.582 443.568 483.911 447.912 483.461 452.229C483.011 456.555 479.792 460.626 475.417 463.114C473.225 464.358 470.558 464.947 467.894 464.876C449.934 464.418 431.975 463.952 413.909 463.35C413.876 462.226 413.835 461.095 414.623 459.572C431.337 460.04 448.06 460.501 465.518 460.942C471.629 461.095 477.252 457.701 478.296 452.877C478.397 452.422 478.452 451.959 478.469 451.496C478.486 451.033 478.457 450.577 478.391 450.122C477.673 445.275 472.267 441.8 466.148 441.875L413.893 442.465C413.859 441.395 413.818 440.34 413.43 438.637Z" fill="#3C97FE"/>
<path d="M484.759 434.994C479.559 436.758 475.706 437.98 470.393 439.629C470.007 439.24 469.614 438.859 469.221 438.486C456.967 427.134 437.837 426.997 423.459 419.167C421.255 417.966 418.745 417.235 416.274 416.163C423.134 414.983 430.208 413.545 437.872 412.331C452.508 412.35 467.145 412.363 482.16 412.483L482.403 412.484C486.571 414.292 489.614 418.6 490.005 423.248C490.389 427.888 488.116 432.669 484.759 434.994Z" fill="#F7AA36"/>
<path d="M484.759 434.994C479.559 436.757 475.706 437.98 470.393 439.629C470.007 439.24 469.614 438.859 469.221 438.486C470.598 437.618 471.908 436.621 473.043 435.434C475.308 433.066 476.862 429.763 476.487 426.466C476.194 423.801 474.663 421.381 472.635 419.687C470.615 418.002 468.136 416.975 465.603 416.35C471.12 415.058 476.636 413.766 482.153 412.475L482.396 412.476C486.564 414.284 489.606 418.593 489.998 423.24C490.39 427.888 488.116 432.669 484.759 434.994Z" fill="#F0942B"/>
<path d="M418.84 437.467C422.697 431.432 422.598 423.923 419.447 418.232C435.02 417.535 450.635 417.611 466.164 418.477C468.578 418.608 471.059 418.778 473.22 419.629C478.26 421.607 480.114 427.118 477.941 431.338C475.768 435.558 470.398 438.391 465.355 438.956C449.699 437.505 433.88 437.131 418.84 437.467Z" fill="#FEEDE3"/>
<path d="M475.883 422.015C460.318 422.538 444.753 423.062 429.189 423.592C444.766 423.623 460.344 423.654 475.914 423.686C475.65 423.214 475.379 422.742 475.883 422.015Z" fill="#DBB9AB"/>
<path d="M478.776 425.694C466.613 425.949 454.451 426.205 442.288 426.461C454.342 426.675 466.397 426.897 478.451 427.112C478.43 426.649 478.417 426.186 478.776 425.694Z" fill="#DBB9AB"/>
<path d="M478.784 429.277C469.401 429.422 460.017 429.567 450.626 429.72C459.819 429.771 469.003 430.028 478.172 430.489C478.189 430.094 478.213 429.7 478.784 429.277Z" fill="#DBB9AB"/>
<path d="M476.364 432.645C460.171 432.862 443.97 433.072 427.776 433.289C443.634 433.518 459.484 433.748 475.342 433.985C475.526 433.614 475.709 433.25 476.364 432.645Z" fill="#DBB9AB"/>
<path d="M416.274 416.163C433.48 415.274 450.736 415.213 468.225 415.76C470.745 415.838 473.186 416.562 475.049 417.898C478.697 420.508 480.845 424.502 480.442 428.471C480.039 432.455 477.109 436.201 473.107 438.501C471.106 439.654 468.66 440.199 466.223 440.144C449.781 439.775 433.324 439.391 416.784 438.893C416.751 437.861 416.709 436.821 417.428 435.412C432.739 435.791 448.049 436.178 464.043 436.529C469.638 436.65 474.782 433.512 475.726 429.075C475.818 428.658 475.866 428.233 475.882 427.808C475.892 427.383 475.871 426.965 475.804 426.547C475.131 422.096 470.171 418.918 464.568 418.995L416.724 419.687C416.682 418.7 416.633 417.728 416.274 416.163Z" fill="#FFBF46"/>
<path d="M252.889 278.386C254.68 278.705 255.368 279.284 255.109 281.53C255.451 279.368 255.954 278.884 258.201 279.007C255.759 278.413 255.815 277.624 256.066 275.56C255.671 277.631 254.909 278.394 252.889 278.386Z" fill="white"/>
<path d="M223.659 375.45C225.449 375.768 226.138 376.348 225.878 378.594C226.221 376.432 226.724 375.955 228.97 376.07C226.528 375.476 226.584 374.687 226.836 372.623C226.44 374.694 225.678 375.458 223.659 375.45Z" fill="white"/>
<path d="M405.073 284.969C406.863 285.287 407.552 285.867 407.293 288.113C407.635 285.951 408.138 285.467 410.385 285.59C407.943 284.996 407.999 284.206 408.25 282.142C407.854 284.213 407.092 284.977 405.073 284.969Z" fill="white"/>
<path d="M510.723 368.05C512.53 367.829 513.356 368.174 513.765 370.4C513.455 368.235 513.799 367.629 515.98 367.076C513.474 367.226 513.295 366.451 512.923 364.407C513.158 366.503 512.653 367.465 510.723 368.05Z" fill="white"/>
<path d="M521.46 432.62C523.268 432.399 524.094 432.744 524.503 434.97C524.192 432.805 524.536 432.199 526.717 431.646C524.212 431.796 524.032 431.021 523.661 428.977C523.903 431.073 523.398 432.035 521.46 432.62Z" fill="white"/>
<path d="M465.665 312.964C465.665 312.964 459.881 305.175 451.081 311.333C442.28 317.491 442.823 344.389 442.823 344.389L455.516 342.795L465.667 312.954L465.665 312.964Z" fill="black"/>
<path d="M426.804 420.316L426.659 420.284C420.635 414.627 416.342 407.376 414.28 399.373C414.269 399.335 414.266 399.295 414.271 399.256C414.277 399.217 414.29 399.179 414.311 399.145C414.332 399.111 414.359 399.082 414.392 399.059C414.424 399.036 414.461 399.021 414.5 399.013C414.539 399.005 414.579 399.006 414.618 399.015C414.657 399.023 414.693 399.04 414.725 399.064C414.757 399.087 414.784 399.117 414.804 399.152C414.824 399.186 414.836 399.224 414.84 399.264C416.868 407.16 421.097 414.317 427.036 419.902C427.09 419.953 427.121 420.023 427.123 420.097C427.126 420.172 427.1 420.244 427.05 420.299L426.779 420.381L426.804 420.316Z" fill="white"/>
<path d="M508.139 430.151C508.139 430.151 513.2 439.348 514.556 440.353C515.913 441.358 530.888 450.059 533.346 453.692C535.805 457.324 534.831 463.288 533.838 463.666C532.846 464.045 480.218 452.79 480.218 452.79L484.809 427.24L508.139 430.151Z" fill="#39476B"/>
<path d="M535.287 442.532C535.287 442.532 544.47 447.497 546.211 447.626C547.951 447.755 565.193 446.946 569.241 448.632C573.289 450.318 575.685 455.898 575.053 456.75C574.422 457.602 524.087 476.652 524.087 476.652L514.116 452.691L535.292 442.513L535.287 442.532Z" fill="#40507F"/>
<path d="M542.348 445.647C542.348 445.647 538.487 456.386 540.341 456.418C542.194 456.45 554.884 449.103 553.976 447.802C553.068 446.501 543.927 444.901 542.319 445.641L542.348 445.647Z" fill="white"/>
<path d="M512.441 436.583C512.441 436.583 503.378 443.523 504.922 444.549C506.466 445.575 521.112 446.278 521.066 444.691C521.019 443.104 514.182 436.803 512.46 436.587L512.441 436.583Z" fill="white"/>
<path d="M484.446 384.348C484.446 384.348 512.934 372.316 533.048 382.336C553.162 392.357 510.725 437.309 510.725 437.309L479.767 430.593L486.038 416.42L448.908 408.209L470.393 388.596L484.466 384.352L484.446 384.348Z" fill="#8E657D"/>
<path d="M512.308 393.661L512.163 393.629C512.109 393.576 512.079 393.503 512.078 393.427C512.078 393.351 512.108 393.278 512.161 393.224C514.61 390.831 517.36 388.766 520.341 387.082C520.407 387.058 520.478 387.059 520.543 387.084C520.608 387.109 520.661 387.156 520.693 387.218C520.726 387.279 520.734 387.35 520.718 387.418C520.702 387.485 520.662 387.545 520.605 387.585C517.672 389.241 514.967 391.271 512.558 393.625L512.299 393.699L512.308 393.661Z" fill="white"/>
<path d="M451.005 337.409C455.775 332.945 462.681 333.903 468.268 335.947C470.964 336.923 473.439 338.425 475.549 340.366C477.659 342.308 479.362 344.649 480.559 347.254C483.303 353.183 487.525 361.59 491.287 365.781C497.378 372.535 510.678 381.961 510.678 381.961L482.398 382.949L482.637 385.084L440.249 394.634C440.249 394.634 439.613 348.104 451.008 337.44L451.005 337.409Z" fill="#68B6D8"/>
<path d="M462.398 327.31L459.338 334.858C459.338 334.858 459.823 337.583 464.095 339.722C467.273 341.319 468.621 340.563 468.621 340.563L469.817 337.044L470.877 333.132L463.618 328.154L462.396 327.32L462.398 327.31Z" fill="#FF9C85"/>
<path d="M463.459 328.837C463.397 329.094 463.376 329.359 463.398 329.622C463.616 333.926 466.531 337.001 469.677 337.499L470.663 333.742L463.459 328.837Z" fill="black"/>
<path d="M478.823 318.79C478.823 318.79 478.094 329.033 474.391 333.336C470.688 337.64 467.027 335.108 464.772 332.896C463.478 331.684 462.534 330.147 462.038 328.445C461.165 328.312 460.355 327.908 459.725 327.289C459.095 326.67 458.676 325.867 458.528 324.996C457.947 321.836 460.234 319.658 461.958 319.682C462.554 319.776 463.124 319.993 463.632 320.318C464.14 320.644 464.575 321.071 464.909 321.573L464.759 318.386C464.759 318.386 476.465 308.013 478.83 318.761L478.823 318.79Z" fill="#FF9C85"/>
<path d="M473.269 329.785L473.134 329.755C473.081 329.703 473.049 329.633 473.047 329.559C473.044 329.485 473.07 329.413 473.12 329.358C473.509 328.823 473.788 328.216 473.941 327.573C474.094 326.93 474.118 326.263 474.012 325.611C474.01 325.542 474.033 325.475 474.076 325.421C474.119 325.368 474.18 325.332 474.248 325.32C474.315 325.307 474.385 325.32 474.444 325.355C474.503 325.39 474.548 325.445 474.57 325.511C474.695 326.247 474.669 327.002 474.492 327.728C474.315 328.454 473.992 329.136 473.543 329.733L473.272 329.816L473.269 329.785Z" fill="black"/>
<path d="M462.655 325.537L462.444 325.349L461.225 321.685C461.204 321.649 461.192 321.608 461.189 321.566C461.186 321.523 461.193 321.481 461.208 321.442C461.223 321.402 461.247 321.367 461.278 321.338C461.309 321.309 461.345 321.287 461.385 321.274C461.425 321.26 461.468 321.256 461.51 321.261C461.552 321.267 461.592 321.281 461.628 321.303C461.664 321.326 461.694 321.356 461.716 321.392C461.739 321.427 461.754 321.468 461.759 321.509L462.978 325.173C463 325.244 462.993 325.321 462.96 325.387C462.926 325.453 462.869 325.504 462.799 325.528L462.664 325.499L462.655 325.537Z" fill="black"/>
<path d="M462.223 324.189L460.432 323.644C460.361 323.621 460.302 323.571 460.267 323.505C460.233 323.439 460.225 323.362 460.247 323.29C460.254 323.253 460.27 323.217 460.293 323.187C460.316 323.156 460.345 323.131 460.379 323.113C460.413 323.095 460.451 323.085 460.489 323.084C460.527 323.083 460.565 323.09 460.601 323.105L462.365 323.633C462.426 323.66 462.477 323.706 462.507 323.766C462.538 323.825 462.547 323.893 462.533 323.958C462.518 324.024 462.482 324.082 462.429 324.123C462.377 324.164 462.311 324.185 462.244 324.183L462.223 324.189Z" fill="black"/>
<path d="M470.809 320.764L470.65 320.658C470.612 320.595 470.599 320.52 470.615 320.448C470.631 320.377 470.673 320.314 470.734 320.272C471.115 320.037 471.56 319.928 472.007 319.958C472.453 319.989 472.879 320.159 473.224 320.444C473.271 320.493 473.299 320.558 473.303 320.626C473.307 320.694 473.287 320.761 473.246 320.815C473.205 320.869 473.145 320.907 473.079 320.922C473.012 320.937 472.943 320.927 472.883 320.895C472.883 320.895 471.866 320.136 471.079 320.732L470.845 320.782L470.809 320.764Z" fill="black"/>
<path d="M478.061 322.96L477.864 322.796C477.689 322.387 477.376 322.053 476.979 321.854C476.856 321.817 476.727 321.808 476.6 321.828C476.474 321.847 476.353 321.894 476.247 321.966C476.183 321.991 476.113 321.993 476.048 321.971C475.984 321.949 475.929 321.904 475.894 321.845C475.859 321.786 475.847 321.717 475.859 321.65C475.871 321.582 475.907 321.522 475.959 321.478C476.135 321.364 476.333 321.291 476.54 321.263C476.747 321.235 476.958 321.253 477.157 321.316C477.708 321.575 478.142 322.031 478.373 322.594C478.402 322.663 478.402 322.741 478.373 322.811C478.345 322.88 478.29 322.935 478.221 322.965L478.047 322.977L478.061 322.96Z" fill="black"/>
<path d="M447.746 397.188C447.672 397.17 447.605 397.129 447.556 397.071C447.507 397.013 447.478 396.941 447.473 396.865L447.28 392.486C447.277 392.393 447.31 392.302 447.373 392.233C447.437 392.164 447.525 392.124 447.618 392.12C447.712 392.117 447.802 392.15 447.871 392.213C447.94 392.277 447.98 392.365 447.984 392.458L448.176 396.837C448.178 396.883 448.171 396.928 448.156 396.971C448.14 397.014 448.116 397.054 448.086 397.087C448.055 397.121 448.018 397.148 447.976 397.167C447.935 397.187 447.89 397.197 447.844 397.199L447.746 397.188Z" fill="#534579"/>
<path d="M482.471 393.913C482.381 393.893 482.303 393.839 482.254 393.762C482.204 393.685 482.188 393.591 482.207 393.501L483.058 389.068C483.078 388.977 483.133 388.898 483.212 388.848C483.29 388.798 483.385 388.781 483.476 388.801C483.566 388.821 483.646 388.876 483.696 388.954C483.746 389.032 483.763 389.127 483.743 389.218L482.892 393.652C482.884 393.697 482.866 393.74 482.84 393.779C482.815 393.817 482.782 393.85 482.743 393.876C482.704 393.901 482.661 393.919 482.616 393.927C482.57 393.935 482.524 393.935 482.479 393.925L482.471 393.913Z" fill="#534579"/>
<path d="M478.253 395.859C478.164 395.839 478.086 395.785 478.036 395.708C477.987 395.631 477.97 395.537 477.99 395.447L479.013 390.779C479.033 390.688 479.088 390.609 479.166 390.559C479.245 390.509 479.34 390.492 479.431 390.512C479.521 390.531 479.601 390.587 479.651 390.665C479.701 390.743 479.718 390.838 479.698 390.929L478.675 395.598C478.655 395.687 478.601 395.765 478.523 395.815C478.446 395.864 478.352 395.881 478.263 395.861L478.253 395.859Z" fill="#534579"/>
<path d="M470.482 331.428C469.929 331.279 469.435 330.961 469.071 330.519C468.706 330.077 468.487 329.532 468.446 328.96C468.448 328.89 468.476 328.824 468.525 328.773C468.573 328.723 468.638 328.691 468.708 328.686C468.777 328.68 468.847 328.7 468.903 328.741C468.959 328.783 468.998 328.844 469.012 328.912C469.051 329.36 469.224 329.785 469.509 330.132C469.793 330.479 470.176 330.733 470.607 330.859L470.674 330.874C470.736 330.9 470.786 330.947 470.817 331.006C470.848 331.066 470.857 331.134 470.842 331.199C470.828 331.264 470.791 331.322 470.739 331.363C470.686 331.404 470.621 331.426 470.554 331.424L470.482 331.428Z" fill="black"/>
<path d="M440.227 393.628C440.227 393.628 497.296 378.764 508.172 385.182C522.495 393.63 541.191 441.471 541.191 441.471L511.562 459.773C511.562 459.773 493.735 420.048 489.593 419.575C484.791 419.068 455.996 424.34 447.263 419.312C438.529 414.283 440.235 393.59 440.235 393.59L440.227 393.628Z" fill="#A37B90"/>
<path d="M475.832 374.857C475.775 374.844 475.723 374.815 475.684 374.772C475.645 374.729 475.619 374.675 475.611 374.617L474.757 367.586C474.454 367.954 474.383 367.908 474.241 367.816C473.966 367.645 474.068 367.455 474.67 366.414C474.7 366.363 474.746 366.322 474.8 366.298C474.854 366.274 474.915 366.267 474.973 366.278C475.363 365.697 475.939 364.822 476.801 363.475C480.908 357.097 475.794 348.191 475.748 348.08C475.723 348.016 475.721 347.946 475.743 347.881C475.765 347.817 475.81 347.762 475.869 347.727C475.927 347.693 475.997 347.68 476.064 347.692C476.131 347.704 476.192 347.74 476.236 347.793C476.286 347.885 481.575 357.051 477.276 363.751C476.293 365.284 475.653 366.266 475.237 366.872L476.171 374.507C476.176 374.545 476.173 374.583 476.163 374.619C476.152 374.655 476.135 374.689 476.112 374.719C476.088 374.749 476.059 374.773 476.026 374.792C475.993 374.81 475.957 374.822 475.919 374.826L475.823 374.805L475.832 374.857Z" fill="#40507F"/>
<path d="M470.842 324.623C470.803 324.614 470.766 324.598 470.733 324.574C470.701 324.55 470.674 324.52 470.654 324.485C470.634 324.45 470.621 324.411 470.617 324.371C470.613 324.331 470.618 324.291 470.63 324.253L471.203 322.518L471.339 322.356L472.155 321.908C472.218 321.89 472.286 321.893 472.346 321.919C472.407 321.944 472.457 321.989 472.488 322.047C472.519 322.105 472.529 322.171 472.517 322.236C472.505 322.3 472.471 322.358 472.421 322.401L471.699 322.789L471.17 324.421C471.147 324.489 471.1 324.546 471.039 324.581C470.977 324.616 470.904 324.626 470.835 324.611L470.842 324.623Z" fill="black"/>
<path d="M475.882 326.536C475.843 326.528 475.807 326.512 475.775 326.489C475.743 326.466 475.716 326.436 475.696 326.403C475.676 326.369 475.663 326.331 475.658 326.292C475.653 326.253 475.656 326.214 475.667 326.176L476.201 324.433L476.338 324.271L477.359 323.716C477.391 323.688 477.43 323.668 477.471 323.657C477.512 323.647 477.555 323.645 477.597 323.653C477.639 323.661 477.679 323.678 477.713 323.703C477.748 323.728 477.776 323.761 477.797 323.798C477.817 323.836 477.828 323.877 477.831 323.92C477.833 323.963 477.825 324.005 477.809 324.045C477.792 324.084 477.767 324.119 477.735 324.148C477.704 324.176 477.666 324.197 477.625 324.209L476.707 324.705L476.206 326.345C476.184 326.412 476.138 326.469 476.076 326.504C476.014 326.539 475.941 326.55 475.872 326.534L475.882 326.536Z" fill="black"/>
<path d="M464.913 321.604L465.278 323.443C465.278 323.443 466.588 321.203 467.095 321.102C469.269 321.082 471.42 320.655 473.437 319.844C476.57 318.509 477.161 317.516 477.161 317.516C477.751 319.438 478.018 321.443 477.953 323.452C477.78 325.345 477.602 326.297 477.602 326.297C477.602 326.297 481.674 315.746 479.003 313.634C476.333 311.522 474.354 312.615 474.354 312.615C474.354 312.615 468.992 310.054 464.468 312.287C459.945 314.52 460.338 320.338 460.338 320.338C460.338 320.338 462.637 319.073 464.901 321.703L464.913 321.604Z" fill="black"/>
<path d="M476.964 382.283L511.9 389.942L526.843 369.553L493.277 362.194C492.867 362.106 492.441 362.139 492.049 362.288C491.658 362.437 491.318 362.696 491.07 363.034L476.973 382.285L476.964 382.283Z" fill="white"/>
<path d="M480.002 382.949L514.948 390.61L528.278 372.415C528.453 372.177 528.566 371.899 528.607 371.607C528.647 371.315 528.614 371.017 528.509 370.74C528.405 370.464 528.233 370.219 528.01 370.026C527.786 369.833 527.517 369.7 527.229 369.637L494.936 362.557L480.002 382.949Z" fill="#39476B"/>
<path d="M471.807 384.135L513.938 393.372C514.129 393.413 514.326 393.417 514.519 393.382C514.711 393.348 514.894 393.275 515.059 393.169C515.223 393.063 515.364 392.926 515.475 392.765C515.586 392.605 515.664 392.423 515.705 392.232L515.819 391.711C515.862 391.521 515.867 391.324 515.833 391.131C515.8 390.939 515.729 390.755 515.624 390.59C515.519 390.425 515.383 390.283 515.223 390.171C515.063 390.059 514.882 389.98 514.691 389.938L472.559 380.701C472.173 380.616 471.769 380.688 471.436 380.902C471.103 381.115 470.868 381.452 470.784 381.838L470.669 382.359C470.585 382.745 470.657 383.149 470.87 383.482C471.083 383.815 471.42 384.05 471.807 384.135Z" fill="black"/>
<path d="M501.509 375.826C501.38 376.414 501.428 377.026 501.648 377.587C501.867 378.147 502.248 378.629 502.741 378.973C503.235 379.317 503.819 379.507 504.42 379.518C505.022 379.53 505.613 379.363 506.12 379.039C506.627 378.714 507.025 378.247 507.266 377.696C507.507 377.145 507.579 376.535 507.474 375.942C507.368 375.35 507.089 374.803 506.672 374.369C506.255 373.936 505.719 373.636 505.131 373.507C504.343 373.334 503.519 373.481 502.84 373.916C502.16 374.351 501.682 375.038 501.509 375.826Z" fill="white"/>
<path d="M512.693 381.715C513.213 381.279 513.832 380.974 514.495 380.827C516.722 380.304 523.258 379.867 524.331 382.073C525.404 384.28 521.709 384.531 521.709 384.531C521.709 384.531 524.675 384.838 523.781 386.795C523.523 387.276 523.135 387.674 522.661 387.944C522.187 388.214 521.646 388.345 521.101 388.32C521.101 388.32 524.162 388.931 522.198 390.926C520.234 392.922 513.473 392.774 511.316 391.867C509.16 390.959 511.81 388.689 511.81 388.689C511.81 388.689 509.614 387.409 510.113 386.103C510.612 384.797 512.69 384.909 512.69 384.909C512.445 384.723 512.248 384.481 512.113 384.205C511.979 383.929 511.911 383.624 511.914 383.317C511.918 383.009 511.993 382.707 512.134 382.434C512.275 382.161 512.478 381.924 512.727 381.743L512.693 381.715Z" fill="#FF9C85"/>
<path d="M513.388 385.275C513.326 385.256 513.272 385.216 513.235 385.163C513.199 385.109 513.181 385.044 513.186 384.98C513.191 384.915 513.218 384.854 513.262 384.806C513.306 384.758 513.365 384.727 513.429 384.718L521.711 384.248C521.751 384.239 521.794 384.238 521.835 384.246C521.877 384.255 521.915 384.272 521.949 384.298C521.983 384.323 522.01 384.355 522.03 384.392C522.05 384.429 522.061 384.47 522.063 384.512C522.065 384.554 522.058 384.596 522.042 384.635C522.026 384.674 522.002 384.709 521.971 384.738C521.94 384.766 521.903 384.788 521.863 384.8C521.823 384.813 521.781 384.816 521.739 384.811L513.458 385.28L513.388 385.275Z" fill="black"/>
<path d="M512.743 388.955C512.682 388.934 512.63 388.894 512.595 388.84C512.559 388.786 512.543 388.721 512.549 388.657C512.555 388.593 512.583 388.533 512.627 388.486C512.671 388.439 512.73 388.409 512.794 388.4L521.105 388.028C521.171 388.037 521.232 388.069 521.277 388.118C521.322 388.167 521.349 388.231 521.352 388.297C521.355 388.364 521.335 388.43 521.295 388.483C521.255 388.537 521.198 388.575 521.133 388.59L512.823 388.962L512.743 388.955Z" fill="black"/>
<path d="M462.388 365.996C462.388 365.996 470.797 357.478 474.071 357.023C477.345 356.568 484.342 359.649 484.15 360.526C483.957 361.404 476.975 360.975 476.975 360.975C476.975 360.975 479.372 368.486 479.044 369.981C478.716 371.476 474.384 375.096 473.537 375.365C472.689 375.634 471.322 372.787 471.322 372.787C469.638 374.041 467.641 374.807 465.55 374.999C462.427 375.133 460.023 369.915 460.023 369.915L462.41 365.991L462.388 365.996Z" fill="#FF9C85"/>
<path d="M473.216 361.01C473.139 360.989 473.071 360.94 473.027 360.873C472.982 360.806 472.964 360.725 472.974 360.645C472.984 360.565 473.022 360.491 473.082 360.438C473.142 360.384 473.219 360.353 473.3 360.352L476.63 360.516C476.679 360.509 476.729 360.514 476.776 360.529C476.822 360.544 476.865 360.569 476.901 360.602C476.937 360.635 476.966 360.676 476.984 360.722C477.003 360.767 477.011 360.816 477.009 360.866C477.006 360.915 476.993 360.963 476.97 361.006C476.947 361.049 476.915 361.087 476.875 361.117C476.836 361.146 476.791 361.167 476.743 361.177C476.694 361.187 476.645 361.187 476.597 361.175L473.267 361.011L473.216 361.01Z" fill="black"/>
<path d="M455.967 334.695C455.967 334.695 420.447 343.255 420.585 371.904C420.682 392.811 463.042 381.687 463.042 381.687L464.375 363.48L446.873 361.836L455.965 334.705L455.967 334.695Z" fill="#68B6D8"/>
<path d="M440.459 384.914C440.396 384.895 440.343 384.856 440.306 384.802C440.269 384.749 440.252 384.684 440.257 384.619C440.261 384.555 440.288 384.493 440.332 384.446C440.377 384.398 440.436 384.367 440.5 384.357C440.645 384.389 455.416 383.18 462.703 380.47L464.046 363.367C462.036 363.038 448.635 360.898 438.227 360.739C438.19 360.74 438.153 360.733 438.118 360.719C438.083 360.705 438.052 360.684 438.026 360.658C438 360.631 437.979 360.599 437.965 360.565C437.951 360.53 437.945 360.493 437.946 360.455C437.947 360.381 437.978 360.309 438.031 360.257C438.084 360.204 438.155 360.174 438.23 360.174C449.512 360.312 464.252 362.796 464.399 362.818C464.47 362.828 464.535 362.865 464.579 362.922C464.623 362.979 464.644 363.051 464.636 363.122L463.257 380.663C463.252 380.716 463.232 380.768 463.2 380.811C463.167 380.854 463.123 380.886 463.072 380.905C455.779 383.694 440.697 384.886 440.544 384.893L440.459 384.914Z" fill="#40507F"/>
<path d="M442.918 357.006L442.58 356.932C442.387 356.91 442.19 356.927 442.004 356.984C441.818 357.04 441.645 357.135 441.497 357.261C441.196 357.529 441.239 357.7 441.255 357.764C441.51 358.77 445.162 359.955 447.891 360.604C446.86 359.498 444.66 357.358 442.924 356.978L442.918 357.006ZM448.457 361.345C447.154 361.059 441.135 359.649 440.692 357.934C440.641 357.734 440.654 357.524 440.729 357.331C440.804 357.139 440.937 356.975 441.109 356.863C441.315 356.687 441.555 356.556 441.814 356.477C442.073 356.398 442.346 356.373 442.615 356.404C445.211 356.599 448.732 360.778 448.91 360.938C448.944 360.984 448.964 361.039 448.967 361.096C448.97 361.152 448.956 361.209 448.927 361.258C448.898 361.307 448.855 361.346 448.803 361.37C448.752 361.395 448.694 361.403 448.638 361.394L448.457 361.345Z" fill="#40507F"/>
<path d="M466.365 340.665C464.75 340.361 463.23 339.682 461.927 338.681C459.293 336.446 459.13 334.611 459.125 334.539C459.131 334.471 459.161 334.408 459.21 334.36C459.259 334.312 459.323 334.284 459.391 334.279C459.459 334.274 459.526 334.294 459.581 334.335C459.636 334.375 459.674 334.434 459.689 334.501C459.689 334.501 459.854 336.195 462.293 338.256C464.732 340.317 469.717 340.5 469.767 340.501C469.808 340.495 469.851 340.497 469.891 340.509C469.931 340.52 469.969 340.541 470 340.568C470.032 340.596 470.057 340.63 470.074 340.668C470.091 340.707 470.099 340.748 470.098 340.79C470.097 340.832 470.087 340.873 470.069 340.911C470.05 340.949 470.023 340.982 469.991 341.008C469.958 341.034 469.92 341.053 469.879 341.062C469.838 341.072 469.796 341.073 469.755 341.065C468.617 341.017 467.486 340.87 466.373 340.626L466.365 340.665Z" fill="#40507F"/>
<path d="M456.585 382.365C456.516 382.35 456.455 382.31 456.413 382.252C456.371 382.194 456.353 382.123 456.361 382.053L458.392 363.29C458.399 363.216 458.436 363.147 458.494 363.099C458.552 363.051 458.626 363.028 458.701 363.034C458.738 363.037 458.774 363.047 458.808 363.064C458.841 363.081 458.871 363.105 458.895 363.134C458.919 363.163 458.936 363.196 458.947 363.232C458.957 363.268 458.961 363.306 458.956 363.343L456.925 382.105C456.918 382.18 456.881 382.249 456.823 382.296C456.766 382.344 456.691 382.368 456.617 382.361L456.585 382.365Z" fill="#40507F"/>
<path fill-rule="evenodd" clip-rule="evenodd" d="M648.488 494.454L62.5579 492.142C55.9149 492.116 50.4535 497.535 50.4273 504.178C50.4011 510.823 55.8166 516.284 62.4625 516.31L103.231 516.471C106.923 516.485 109.932 519.519 109.918 523.212C109.903 526.901 106.87 529.913 103.178 529.899L88.2633 529.84C83.6483 529.821 79.8565 533.584 79.8383 538.195C79.8201 542.81 83.5801 546.603 88.1971 546.622L621.087 548.725C625.702 548.743 629.491 544.983 629.509 540.365C629.527 535.752 625.768 531.961 621.153 531.943L609.405 531.896C605.712 531.882 602.704 528.849 602.719 525.157C602.733 521.464 605.765 518.454 609.458 518.468L648.393 518.622C655.037 518.648 660.498 513.232 660.525 506.586C660.551 499.942 655.128 494.481 648.488 494.454ZM641.981 548.806C637.549 548.789 633.938 545.149 633.956 540.719L633.958 540.047C633.976 535.617 637.615 532.007 642.047 532.024C646.477 532.042 650.088 535.681 650.07 540.111L650.068 540.783C650.05 545.215 646.411 548.824 641.981 548.806Z" fill="#01020E"/>
<path d="M349.992 482.97C360.968 483.097 371.9 485.114 382.871 484.618C393.843 484.13 405.396 480.638 412.217 472.034C420.35 461.772 419.68 446.897 415.502 433.892C392.723 433.111 369.944 432.323 347.443 430.587C345.404 431.603 343.215 432.301 340.66 433.331C340.467 434.127 339.366 434.32 338.615 434.013C337.865 433.707 337.275 433.074 336.525 432.73C335.646 432.332 334.583 432.373 333.746 432.856C332.909 433.338 332.321 434.224 332.106 434.861C323.294 432.382 314.013 431.563 305.081 432.742C301.666 438.119 298.858 443.87 296.724 449.866C311.611 459.437 326.108 469.614 340.163 480.366" fill="#0D409E"/>
<path d="M325.477 369.753C323.756 367.476 321.775 365.396 319.688 363.33C315.556 365.789 312.405 369.663 310.104 373.882C307.802 378.102 306.273 382.696 304.752 387.26C304.337 388.504 303.922 389.823 304.22 391.099C304.482 392.239 305.283 393.169 306.084 394.022C308.995 397.123 312.301 399.846 315.906 402.115C322.645 393.085 326.363 381.842 325.477 369.753Z" fill="#BA68D6"/>
<path d="M418.289 443.271C407.795 438.158 395.15 437.668 384.292 441.96C378.377 444.305 372.82 448.026 366.479 448.532C361.285 448.944 356.108 447.094 351.7 444.306C347.293 441.518 343.55 437.821 339.837 434.162C340.343 431.075 341.956 428.128 344.114 425.662C328.062 409.239 319.078 386.93 318.348 364.266C328.76 355.433 341.836 348.842 355.704 345.48C369.945 347.419 383.966 353.548 395.192 363.598C406.023 394.879 414.971 414.6 418.289 443.271Z" fill="#A25ED6"/>
<path d="M361.186 462.601C344.499 455.133 327.82 447.666 311.133 440.198C305.115 437.51 298.985 434.783 292.428 434.074C285.88 433.372 278.722 435.014 274.307 439.901C269.557 445.151 268.91 453.317 271.647 459.848C274.385 466.38 280.021 471.367 286.309 474.611C292.597 477.855 299.567 479.545 306.485 481.045C323.013 484.625 339.718 487.287 356.417 489.949C358.691 481.205 360.965 472.476 361.186 462.601Z" fill="#0750B5"/>
<path d="M397.343 501.422C395.922 503.633 393.994 505.508 391.666 506.775C385.557 510.091 377.371 508.859 372.834 504.134C372.041 503.311 371.414 502.352 370.879 501.341C370.804 501.196 370.721 501.036 370.638 500.892C368.121 496.122 365.354 491.488 362.357 487.004C368.177 483.976 373.861 480.711 381.94 476.34C385.928 477.692 389.716 479.658 393.289 482.154C395.848 483.941 397.683 486.415 398.667 489.152C400.101 493.113 399.779 497.636 397.343 501.422Z" fill="#14133B"/>
<path d="M397.343 501.422C395.922 503.633 393.994 505.508 391.666 506.775C385.557 510.091 377.371 508.859 372.834 504.134C372.04 503.311 371.414 502.352 370.879 501.341C370.804 501.196 370.721 501.036 370.638 500.892C376.66 504.286 384.363 504.787 390.366 501.387C394.825 498.854 397.835 494.129 398.674 489.144C400.101 493.113 399.779 497.636 397.343 501.422Z" fill="#515D82"/>
<path d="M319.741 495.938C311.56 499.292 303.513 502.972 295.625 506.98C295.526 507.033 295.42 507.085 295.313 507.131C290.278 509.51 284.112 508.088 281.003 503.445C280.731 503.042 280.49 502.623 280.271 502.19C278.148 497.862 278.616 492.618 280.448 488.161C280.609 487.767 280.785 487.373 280.969 486.987C283.763 481.046 289.382 477.022 295.77 475.939C296.659 475.791 297.555 475.695 298.459 475.661C303.189 475.49 308.094 475.411 312.99 475.513C316.151 484.195 317.95 490.071 319.741 495.938Z" fill="#14133B"/>
<path d="M295.313 507.131C290.278 509.51 284.112 508.089 281.003 503.445C280.731 503.042 280.49 502.624 280.271 502.19C278.148 497.862 278.616 492.618 280.448 488.162C280.609 487.767 280.785 487.373 280.969 486.987C283.763 481.046 289.382 477.022 295.77 475.939C292.446 477.717 289.355 479.846 286.907 482.691C282.675 487.601 280.883 495.216 284.438 500.635C286.845 504.311 290.914 506.119 295.313 507.131Z" fill="#515D82"/>
<path d="M321.779 502.961C345.624 497.126 369.736 490.943 391.077 478.927C398.503 474.743 405.842 469.541 409.592 461.949C413.342 454.357 412.282 443.884 405.226 439.104C400.607 435.981 394.443 435.873 389.07 437.431C383.697 438.989 378.91 442.007 374.101 444.842C353.236 457.157 330.652 466.625 307.648 472.843C307.308 484.047 312.236 495.294 321.779 502.961Z" fill="#065CBD"/>
<path d="M310.748 331.957C309.805 330.367 308.056 329.289 306.211 329.161C304.367 329.032 302.481 329.859 301.329 331.305C299.963 333.015 299.681 335.413 300.166 337.548C300.748 340.131 302.393 342.461 304.635 343.874C306.876 345.288 309.683 345.777 312.281 345.529C311.681 341.534 313.598 336.766 310.748 331.957Z" fill="#EF9281"/>
<path d="M360.393 355.687C359.325 360.837 357.15 365.649 353.514 369.415C352.188 370.792 350.574 372.053 348.682 372.296C346.958 372.517 345.23 371.85 343.837 370.797C343.663 370.667 343.497 370.53 343.33 370.385C341.855 369.096 340.784 367.429 339.727 365.785C339.26 365.047 338.769 364.21 338.947 363.36C339.102 362.647 339.681 362.126 340.23 361.65C346.72 356.058 353.21 350.458 360.94 342.282C361.416 346.702 361.306 351.317 360.393 355.687Z" fill="#FFBD9A"/>
<path d="M360.393 355.687C359.115 358.377 357.427 360.875 355.399 363.069C352.22 366.51 348.217 369.159 343.837 370.797C343.663 370.667 343.497 370.53 343.33 370.385C341.855 369.096 340.784 367.429 339.727 365.785C339.26 365.047 338.769 364.21 338.947 363.36C339.102 362.647 339.681 362.126 340.23 361.65C346.72 356.058 353.21 350.458 360.94 342.282C361.416 346.702 361.306 351.317 360.393 355.687Z" fill="#EF9281"/>
<path d="M374.831 317.665C374.517 323.987 371.882 329.928 368.646 336.292C357.145 336.141 345.642 336.748 334.227 338.1L313.52 337.282C306.839 333.543 301.083 328.161 296.926 321.737C296.669 321.357 296.428 320.969 296.194 320.581C295.296 319.104 294.453 317.438 294.74 315.739C295.028 314.04 296.992 312.582 298.492 313.431C295.409 309.889 293.612 305.372 293.304 300.74C293.204 299.267 293.255 297.749 293.83 296.385C294.397 295.028 295.556 293.841 297.007 293.573C298.374 293.313 299.943 294.063 300.4 295.363C299.232 291.479 297.791 287.124 299.408 283.281C300.044 281.773 301.143 280.449 302.573 279.657C305.989 277.758 310.257 279.202 313.735 280.984C317.212 282.774 320.863 284.952 324.736 284.421C323.237 283.383 323.399 280.833 324.8 279.753C326.202 278.672 328.235 278.825 329.85 279.537C331.471 280.25 332.818 281.447 334.302 282.409C338.126 284.914 342.723 285.881 347.206 286.734C351.697 287.594 356.294 288.44 360.24 290.748C361.391 291.421 362.473 292.253 363.434 293.198L363.441 293.205C365.778 295.507 367.36 298.52 367.264 301.753C372.59 304.469 375.136 311.342 374.831 317.665Z" fill="#14133B"/>
<path d="M363.434 293.198C360.631 291.539 357.127 290.721 353.834 290.351C348.295 289.729 342.343 289.751 337.702 286.651C336.74 286.009 335.847 285.239 334.802 284.742C333.756 284.236 332.474 284.042 331.454 284.592C330.427 285.142 329.898 286.613 330.849 288.006C325.662 288.448 320.374 287.607 315.584 285.577C313.386 284.642 311.076 283.426 308.728 283.91C305.917 284.483 304.091 287.429 303.859 290.29C303.628 293.159 304.634 295.964 305.626 298.656C303.538 296.757 299.868 297.57 298.204 299.856C296.548 302.142 296.611 305.338 297.656 307.962C298.708 310.585 300.597 312.771 302.449 314.904C299.922 314.719 297.749 317.004 297.162 319.468C296.985 320.212 296.914 320.971 296.926 321.737C296.669 321.357 296.428 320.969 296.194 320.581C295.296 319.104 294.453 317.438 294.74 315.739C295.028 314.04 296.992 312.582 298.492 313.431C295.409 309.889 293.612 305.372 293.304 300.74C293.204 299.267 293.255 297.749 293.83 296.385C294.397 295.028 295.556 293.841 297.007 293.573C298.374 293.313 299.943 294.063 300.4 295.363C299.232 291.479 297.791 287.124 299.408 283.281C300.044 281.773 301.143 280.449 302.573 279.657C305.989 277.758 310.257 279.202 313.735 280.984C317.212 282.774 320.863 284.952 324.736 284.421C323.237 283.383 323.399 280.833 324.8 279.753C326.202 278.672 328.235 278.825 329.85 279.537C331.471 280.25 332.818 281.447 334.302 282.409C338.126 284.914 342.723 285.881 347.206 286.734C351.697 287.594 356.294 288.44 360.24 290.748C361.391 291.421 362.473 292.253 363.434 293.198Z" fill="#2C245C"/>
<path d="M373.604 340.07C371.874 343.487 367.222 345.032 363.759 343.394C360.272 349.856 356.378 355.671 351.047 359.901C345.708 364.131 338.79 366.647 332.045 365.724C322.166 364.38 314.441 355.953 310.978 346.609C307.883 338.262 307.562 329.211 307.575 320.269C307.571 319.206 307.576 318.143 307.58 317.08C316.89 320.29 327.289 318.494 335.123 312.93C334.541 314.112 334.316 315.409 334.516 316.693C334.708 317.969 335.409 319.247 336.584 319.791C337.698 320.304 339.004 320.089 340.182 319.775C345.046 318.504 349.535 315.841 352.989 312.196C352.477 318.821 354.38 325.236 357.95 330.534C358.795 331.79 359.739 332.985 360.767 334.105C362.179 330.391 366.877 328.61 370.332 330.271C373.787 331.932 375.34 336.645 373.604 340.07Z" fill="#FFBD9A"/>
<path d="M357.95 330.534C354.203 327.779 351.501 323.562 350.548 318.829C345.688 323.251 337.483 324.684 334.214 322.15C332.851 321.09 331.59 319.415 332.22 317.61C324.809 321.764 315.696 322.684 307.575 320.269C307.571 319.206 307.576 318.143 307.58 317.08C316.89 320.29 327.289 318.494 335.123 312.93C334.541 314.112 334.316 315.409 334.516 316.693C334.708 317.969 335.409 319.247 336.584 319.791C337.698 320.304 339.004 320.089 340.182 319.775C345.046 318.504 349.535 315.841 352.989 312.196C352.477 318.821 354.38 325.236 357.95 330.534Z" fill="#EF9281"/>
<path d="M335.467 327.743C336.487 325.044 339.584 323.31 342.421 323.845C345.258 324.388 347.502 327.137 347.453 330.022C346.337 328.082 344.338 326.677 342.138 326.281C339.938 325.885 337.575 326.506 335.467 327.743Z" fill="#14133B"/>
<path d="M321.845 328.539C321.13 326.927 319.898 325.51 318.299 324.76C316.7 324.009 314.734 324.002 313.22 324.907C311.706 325.812 310.78 327.691 311.152 329.416C312.456 327.925 314.35 326.961 316.325 326.794C318.307 326.627 320.339 327.25 321.845 328.539Z" fill="#14133B"/>
<path d="M326.774 341.502C326.508 343.399 327.069 345.39 328.271 346.875" stroke="#C44547" stroke-width="2" stroke-miterlimit="10" stroke-linecap="round" stroke-linejoin="round"/>
<path d="M329.556 354.009C331.716 354.883 334.191 354.938 336.388 354.165C338.585 353.391 340.481 351.797 341.613 349.759" stroke="#C44547" stroke-width="2" stroke-miterlimit="10" stroke-linecap="round" stroke-linejoin="round"/>
<path d="M320.325 339.557C321.279 339.446 322.186 340.511 322.351 341.935C322.516 343.36 321.877 344.604 320.924 344.714C319.97 344.825 319.063 343.76 318.898 342.336C318.732 340.912 319.371 339.667 320.325 339.557Z" fill="#14133B"/>
<path d="M339.587 338.989C340.541 338.878 341.448 339.943 341.613 341.368C341.778 342.792 341.139 344.037 340.186 344.147C339.232 344.258 338.325 343.192 338.16 341.768C337.995 340.344 338.634 339.099 339.587 338.989Z" fill="#14133B"/>
<path d="M401.782 396.115C405.031 407.69 407.011 419.616 407.372 431.901C398.598 429.68 390.224 425.881 382.767 420.758C383.124 414.899 382.851 408.999 381.948 403.203C388.586 402.395 395.165 401.084 401.782 396.115Z" fill="#EF9281"/>
<path d="M377.197 414.458C388.672 413.281 399.707 408.17 407.597 400.071C405.154 389.926 401.806 378.541 398.051 368.164C395.858 362.09 389.693 358.353 383.305 359.315C383.237 359.322 383.168 359.337 383.1 359.344C376.598 360.351 371.839 365.988 371.721 372.569C371.484 386.468 372.944 399.509 377.197 414.458Z" fill="#BA68D6"/>
<path d="M368.814 418.744C372.421 426.054 376.911 432.942 382.14 439.195C385.366 443.057 389.435 446.945 394.468 447.086C397.8 447.175 401.033 445.51 403.259 443.029C405.486 440.548 406.774 437.334 407.364 434.057C407.884 431.174 407.843 427.993 406.228 425.55C405.134 423.898 403.446 422.76 401.795 421.661C392.724 415.62 383.654 409.579 374.583 403.539C372.96 408.937 371.337 414.329 368.814 418.744Z" fill="#FFBD9A"/>
<path d="M283.283 408.538C283.671 415.972 284.659 423.37 286.217 430.641C286.985 434.22 288.003 437.959 290.596 440.542C293.878 443.804 299.197 444.456 303.546 442.863C307.894 441.279 311.332 437.77 313.716 433.801C316.1 429.833 317.553 425.39 318.99 420.985C308.697 414.939 297.311 410.78 283.283 408.538Z" fill="#F7A98B"/>
<path d="M303.898 418.868C305.539 422.389 306.808 426.084 307.674 429.875" stroke="#ED8C74" stroke-miterlimit="10" stroke-linecap="round"/>
<path d="M308.283 396.589C310.323 389.484 316.841 384.582 323.526 381.428C334.121 376.437 346.313 374.541 358.458 376.776C360.176 389.597 361.902 402.41 363.886 415.218C362.122 415.977 360.357 416.73 358.593 417.489C352.216 411.702 344.489 407.55 336.455 404.451C328.42 401.345 320.04 399.247 308.283 396.589Z" fill="white"/>
<path d="M309.292 396.934C309.675 390.278 307.454 383.505 303.201 378.364C298.947 373.231 292.705 369.782 286.194 369.21C287.627 373.346 289.069 377.474 290.517 381.655C296.288 385.321 301.737 389.488 309.292 396.934Z" fill="#E1EDF2"/>
<path d="M309.47 397.884C308.828 391.398 305.816 385.169 301.134 380.641C296.453 376.113 290.133 373.302 283.568 372.935C282.336 375.412 281.104 377.89 280.193 381.743C287.708 389.463 295.224 397.183 302.739 404.902C304.312 402.54 306.431 400.552 309.47 397.884Z" fill="white"/>
<path d="M360.994 418.911C349.466 418.137 337.682 422.326 329.232 430.211C329.141 430.226 329.057 430.233 328.966 430.248C327.311 430.461 326.02 430.547 324.843 430.588C324.364 430.609 323.901 430.615 323.438 430.628C323.363 430.484 323.28 430.347 323.197 430.21C320.498 425.561 315.872 422.187 310.686 420.679C305.34 419.124 299.44 419.572 294.382 421.905C288.578 407.526 282.917 393.528 277.263 379.522C289.091 379.478 300.585 385.171 306.499 394.639C306.56 394.722 306.613 394.814 306.665 394.897C307.916 395.434 309.243 395.712 310.655 395.862C310.989 395.894 311.33 395.925 311.672 395.942C311.71 395.859 311.741 395.775 311.786 395.692C313.216 393.094 316.529 390.434 321.116 388.183C329.346 384.131 341.67 381.378 354.48 382.568C355.926 391.319 357.508 400.055 359.217 409.339C359.797 412.461 360.384 415.644 360.994 418.911Z" fill="#FFBF46"/>
<path d="M324.843 430.588C324.364 430.609 323.901 430.615 323.438 430.628C323.363 430.484 323.28 430.347 323.197 430.21C320.498 425.561 315.872 422.187 310.686 420.679C305.34 419.124 299.44 419.572 294.382 421.905C288.578 407.526 282.917 393.528 277.263 379.522C289.091 379.478 300.585 385.171 306.499 394.639C306.56 394.722 306.613 394.814 306.665 394.897C307.916 395.434 309.243 395.712 310.655 395.862C311.98 398.706 313.221 401.475 314.463 404.243C318.331 412.867 322.199 421.521 324.843 430.588Z" fill="#F7AA36"/>
<path d="M359.218 409.339C356.591 401.744 354.442 393.985 352.781 386.121C341.965 383.718 331.007 384.578 321.116 388.183C329.346 384.131 341.67 381.378 354.48 382.568C355.926 391.319 357.508 400.055 359.218 409.339Z" fill="#FFDB80"/>
<path d="M328.966 430.248C326.642 430.55 325.04 430.589 323.438 430.628C323.363 430.484 323.28 430.347 323.197 430.21C317.671 418.573 312.144 406.944 306.611 395.315C306.574 395.087 306.536 394.859 306.499 394.638C306.56 394.722 306.613 394.813 306.665 394.897C308.211 395.556 309.873 395.836 311.672 395.942C311.71 395.858 311.741 395.775 311.787 395.692C317.299 407.063 323.114 418.648 328.966 430.248Z" fill="#FFDB80"/>
<path d="M354.242 396.634C351.038 396.689 347.667 396.782 344.898 398.396C344.083 398.871 343.322 399.498 342.931 400.347C342.541 401.203 342.605 402.312 343.278 402.967C343.89 403.562 344.831 403.649 345.681 403.705C349.749 403.964 353.825 404.223 357.893 404.49C357.637 401.969 356.789 399.498 354.242 396.634Z" fill="#F7AA36"/>
<path d="M345.569 408.943C344.93 409.313 344.299 409.735 343.848 410.326C343.398 410.916 343.16 411.697 343.354 412.411C343.541 413.073 344.078 413.583 344.685 413.897C345.291 414.211 345.973 414.35 346.71 414.292C345.764 415.389 345.985 417.167 346.914 418.271C347.844 419.375 349.307 419.897 350.741 420.085C350.162 416.743 349.765 413.378 349.558 409.991C348.313 410.047 347.054 409.815 345.569 408.943Z" fill="#F7AA36"/>
<path d="M375.368 404.757C375.368 404.757 374.526 396.873 369.636 393.21C366.866 391.134 363.654 389.284 360.198 389.741C360.531 391.891 360.736 393.866 361.121 396.289C356.066 396.117 351.065 395.748 346.276 397.399C345.196 397.775 344.093 398.279 343.444 399.218C342.795 400.157 342.812 401.629 343.744 402.286C344.236 402.63 344.873 402.685 345.473 402.726C350.33 403.056 355.18 403.394 360.012 404.157C357.019 406.666 353.157 408.115 349.254 408.199C348.146 408.225 347.015 408.137 345.944 408.436C344.872 408.736 343.844 409.506 343.65 410.598C343.378 412.116 344.793 413.434 346.308 414.093C345.796 415.078 345.867 416.339 346.471 417.267C347.074 418.196 348.203 418.762 349.432 419.063C348.889 419.949 349.241 421.165 349.982 421.889C350.723 422.613 351.755 422.951 352.763 423.198C358.641 424.641 365.059 423.763 370.467 421.067C372.721 415.534 375.368 404.757 375.368 404.757Z" fill="#FFBD9A"/>
<path d="M346.899 414.468C351.382 415.396 356.128 415.081 360.446 413.549" stroke="#C44547" stroke-width="2" stroke-miterlimit="10" stroke-linecap="round" stroke-linejoin="round"/>
<path d="M349.747 419.983C353.394 421.113 357.48 420.757 360.88 419.017" stroke="#C44547" stroke-width="2" stroke-miterlimit="10" stroke-linecap="round" stroke-linejoin="round"/>
<path d="M294.551 398.364C295.391 398.853 296.041 399.691 296.257 400.641C296.474 401.591 296.242 402.645 295.609 403.386C294.686 404.468 293.151 404.751 291.746 404.958C290.865 405.091 289.984 405.224 289.468 405.23C291.105 407.886 294.035 409.696 297.374 410.165C298.285 410.085 299.219 410.142 300.067 410.479C300.916 410.817 301.665 411.465 301.988 412.316C302.319 413.168 302.163 414.223 301.537 415.131C302.361 416.061 302.575 417.489 302.062 418.618C301.549 419.747 300.347 420.532 299.102 420.534C297.953 417.174 295.801 414.228 293.291 411.72C290.78 409.213 287.904 407.099 285.043 404.992C286.019 403.903 286.669 402.531 286.911 401.09C289.213 400.628 291.499 400.151 294.551 398.364Z" fill="#EB8328"/>
<path d="M279.566 400.074C279.579 400.575 279.615 401.076 279.666 401.585C279.828 403.028 281 404.164 282.442 404.321C286.107 404.716 289.827 404.616 293.511 404.046C294.977 403.817 296.083 402.591 296.18 401.104C296.18 401.089 296.18 401.066 296.18 401.051C296.285 399.426 295.129 397.972 293.521 397.715C289.97 397.147 286.373 396.875 282.821 396.769C280.991 396.717 279.513 398.237 279.566 400.074Z" fill="#FFBD9A"/>
<path d="M282.655 404.11C281.78 406.581 281.739 409.337 282.549 411.83C282.774 412.529 283.082 413.229 283.573 413.77C284.072 414.318 284.792 414.693 285.529 414.643C285.159 415.924 285.435 417.14 285.886 418.296C286.247 419.231 286.744 420.144 287.493 420.8C288.25 421.456 289.311 421.824 290.276 421.57C290.628 422.877 290.987 424.131 291.674 425.212C292.36 426.293 293.427 427.208 294.702 427.395C296.303 427.637 297.825 426.724 299.187 425.856C300.298 425.147 301.463 424.377 302.021 423.188C302.588 421.998 302.238 420.274 300.995 419.843C301.903 418.61 301.881 416.362 300.657 415.067C301.494 414.478 301.491 413.226 301.298 412.223C301.142 411.425 300.91 410.597 300.358 409.995C299.436 408.989 297.887 408.884 296.528 409.016C295.169 409.147 293.755 409.445 292.467 409C290.718 407.619 289.153 406.117 287.733 404.388C286.093 404.313 284.438 404.231 282.655 404.11Z" fill="#FFBD9A"/>
<path d="M286.286 415.003C290.53 416.94 295.54 417.119 299.911 415.497" stroke="#C44547" stroke-width="2" stroke-miterlimit="10" stroke-linecap="round" stroke-linejoin="round"/>
<path d="M291.042 421.96C294.213 422.489 297.547 421.986 300.415 420.547" stroke="#C44547" stroke-width="2" stroke-miterlimit="10" stroke-linecap="round" stroke-linejoin="round"/>
<path d="M178.878 376.689C178.878 376.689 189.838 351.887 201.988 348.449C214.137 345.011 200.936 379.6 200.936 379.6L178.868 376.689L178.878 376.689Z" fill="#F7B369"/>
<path d="M224.043 347.154C224.043 347.154 245.697 352.582 250.668 371.472C255.639 390.362 227.224 399.266 227.224 399.266L224.043 347.164L224.043 347.154Z" fill="#F7B369"/>
<path d="M234.602 423.863L233.918 432.046L251.184 433.448L251.216 425.262L234.602 423.863Z" fill="white"/>
<path d="M225.304 395.437C225.304 395.437 247.309 371.824 262.143 376.336C283.161 382.7 260.748 434.503 260.748 434.503L229.703 434.38L231.043 424.975L195.768 425.616L200.168 389.097L225.304 395.456L225.304 395.437Z" fill="#68B6D8"/>
<path d="M199.705 418.995L207.634 419.027L205.53 436.566L198.895 436.54L199.705 418.995Z" fill="#F7B369"/>
<path d="M217.176 343.108C217.176 343.108 228.111 344.603 224.622 330.429C221.133 316.254 210.97 324.252 210.97 324.252L217.176 343.108Z" fill="black"/>
<path d="M183.238 397.7C183.238 397.7 148.242 407.703 145.903 422.585C143.563 437.467 167.404 444.167 180.484 445.147C188.54 445.734 196.626 445.766 204.686 445.243L204.895 392.374L183.229 397.7L183.238 397.7Z" fill="#68B6D8"/>
<path d="M191.899 397.734C191.899 397.734 191.917 353.031 200.831 348.85C212.02 343.611 228.165 346.104 231.096 351.497C234.439 357.652 229.484 394.712 229.484 394.712C217.78 400.404 204.363 401.486 191.898 397.744L191.899 397.734Z" fill="#F7B369"/>
<path d="M219.295 339.344L219.896 346.96C219.896 346.96 219.264 349.475 214.838 350.189C213.145 350.561 211.381 350.441 209.754 349.843L209.917 345.953L210.08 342.162L217.989 339.764L219.314 339.364L219.295 339.344Z" fill="#F48462"/>
<path d="M217.969 339.783C217.954 340.04 217.9 340.293 217.808 340.533C216.401 344.477 211.814 345.654 209.887 345.982L210.05 342.191L217.96 339.793L217.969 339.783Z" fill="black"/>
<path d="M206.998 324.928C206.998 324.928 203.75 334.79 205.744 339.962C207.738 345.135 212.503 343.85 215.302 342.548C216.887 341.855 218.255 340.748 219.265 339.344C220.114 339.51 220.994 339.403 221.78 339.039C222.565 338.675 223.215 338.073 223.638 337.317C225.208 334.628 223.827 331.838 222.22 331.318C221.639 331.21 221.043 331.223 220.468 331.356C219.893 331.49 219.352 331.741 218.879 332.095L220.065 329.206C220.065 329.206 212.682 315.796 206.988 324.928L206.998 324.928Z" fill="#F48462"/>
<path d="M186.092 362.814C186.092 362.814 178.423 346.727 179.57 346.514C180.716 346.302 187.676 361.625 187.676 361.625L186.092 362.814Z" fill="black"/>
<path d="M207.634 419.027C207.634 419.027 222.616 418.602 225.901 421.943C227.808 423.925 222.444 442.123 222.444 442.123C222.444 442.123 221.018 463.18 218.618 465.807C216.218 468.434 210.108 467.748 209.196 465.997C208.154 463.961 207.624 461.702 207.652 459.414L207.619 452.956L205.195 436.387L207.624 418.987L207.634 419.027Z" fill="#F7B369"/>
<path d="M232.692 447.476C232.785 451.555 259.216 459.944 260.182 460.362C261.148 460.781 269.063 462.007 271.959 461.209C274.045 460.634 273.963 453.968 272.638 451.761C271.314 449.554 266.108 447.628 266.108 447.628L251.634 434.486L233.958 434.417C233.958 434.417 232.643 444.938 232.702 447.476L232.692 447.476Z" fill="#F7B369"/>
<path d="M193.744 375.474C193.676 375.472 193.611 375.446 193.561 375.4C193.51 375.355 193.478 375.293 193.469 375.226C193.039 371.511 195.966 360.423 196.087 359.91C196.093 359.871 196.107 359.833 196.128 359.799C196.15 359.766 196.178 359.737 196.211 359.715C196.245 359.693 196.282 359.678 196.322 359.671C196.361 359.665 196.402 359.666 196.44 359.676C196.479 359.686 196.515 359.704 196.547 359.728C196.578 359.753 196.604 359.784 196.623 359.819C196.641 359.855 196.652 359.893 196.655 359.933C196.658 359.973 196.653 360.013 196.639 360.051C196.639 360.169 193.631 371.553 194.032 375.159C194.037 375.196 194.035 375.234 194.025 375.27C194.015 375.306 193.998 375.34 193.975 375.369C193.952 375.399 193.923 375.423 193.89 375.441C193.857 375.459 193.821 375.47 193.784 375.474L193.744 375.474Z" fill="white"/>
<path d="M178.151 370.771C178.151 370.771 183.129 360.383 185.979 358.952C188.828 357.522 196.153 358.133 196.258 358.993C196.363 359.852 189.839 361.663 189.839 361.663C189.839 361.663 194.328 367.754 194.559 369.216C194.79 370.679 191.918 375.338 191.225 375.849C190.531 376.359 188.407 374.198 188.407 374.198C187.263 375.865 185.683 377.184 183.84 378.012C181.041 379.107 177.215 375.112 177.215 375.112L178.161 370.791L178.151 370.771Z" fill="#F48462"/>
<path d="M207.081 333.924C207.042 333.924 207.003 333.916 206.967 333.9C206.931 333.884 206.898 333.861 206.872 333.832C206.845 333.804 206.824 333.769 206.811 333.732C206.798 333.695 206.793 333.656 206.796 333.617L206.931 331.968L206.231 331.728C206.189 331.723 206.149 331.708 206.113 331.685C206.078 331.662 206.048 331.632 206.025 331.596C206.003 331.56 205.989 331.519 205.984 331.477C205.979 331.435 205.984 331.393 205.997 331.353C206.011 331.313 206.033 331.276 206.062 331.246C206.092 331.215 206.127 331.192 206.167 331.177C206.206 331.162 206.249 331.156 206.291 331.159C206.333 331.162 206.374 331.175 206.411 331.196L207.328 331.506C207.387 331.525 207.439 331.564 207.474 331.616C207.51 331.668 207.527 331.73 207.524 331.793L207.378 333.658C207.373 333.731 207.341 333.799 207.287 333.848C207.234 333.897 207.164 333.924 207.091 333.924L207.081 333.924Z" fill="black"/>
<path d="M186.84 378.409C186.84 378.409 189.597 375.457 189.626 373.088C189.655 370.718 184.45 371.023 184.45 371.023L183.799 375.642L186.85 378.409L186.84 378.409Z" fill="#FF9C85"/>
<path d="M179.568 396.965L213.971 397.1C214.554 397.1 215.114 396.869 215.528 396.459C215.942 396.048 216.177 395.49 216.182 394.907L216.274 371.623C216.274 371.04 216.043 370.48 215.632 370.066C215.221 369.652 214.664 369.417 214.08 369.412L179.677 369.276C179.093 369.274 178.532 369.504 178.118 369.915C177.703 370.326 177.469 370.886 177.467 371.47L177.375 394.754C177.373 395.338 177.602 395.899 178.014 396.313C178.425 396.728 178.984 396.962 179.568 396.965Z" fill="black"/>
<path d="M182.126 396.975L216.381 397.11C216.965 397.112 217.526 396.882 217.94 396.471C218.355 396.06 218.589 395.5 218.591 394.916L218.683 371.632C218.685 371.048 218.456 370.487 218.044 370.073C217.633 369.658 217.074 369.424 216.49 369.421L182.235 369.286C181.651 369.284 181.09 369.514 180.675 369.925C180.261 370.336 180.026 370.896 180.024 371.48L179.932 394.764C179.93 395.348 180.16 395.909 180.571 396.323C180.982 396.738 181.542 396.972 182.126 396.975Z" fill="#7C576C"/>
<path d="M194.543 383.139C194.541 383.784 194.73 384.415 195.085 384.952C195.441 385.489 195.949 385.909 196.543 386.158C197.138 386.407 197.793 386.474 198.425 386.351C199.058 386.228 199.64 385.92 200.097 385.466C200.555 385.012 200.867 384.432 200.996 383.801C201.124 383.169 201.062 382.514 200.818 381.917C200.573 381.321 200.158 380.81 199.623 380.45C199.089 380.09 198.459 379.896 197.815 379.894C196.951 379.89 196.12 380.23 195.507 380.839C194.893 381.448 194.547 382.275 194.543 383.139Z" fill="white"/>
<path d="M212.523 333.6C212.447 333.6 212.375 333.569 212.321 333.515C212.268 333.461 212.238 333.388 212.238 333.312L212.244 331.831L211.514 331.493C211.475 331.481 211.438 331.461 211.406 331.434C211.375 331.407 211.35 331.374 211.332 331.336C211.315 331.298 211.306 331.257 211.307 331.216C211.307 331.175 211.316 331.134 211.333 331.096C211.351 331.059 211.376 331.025 211.408 330.999C211.44 330.972 211.477 330.952 211.517 330.941C211.557 330.93 211.598 330.928 211.639 330.935C211.68 330.941 211.719 330.957 211.753 330.98L212.65 331.398C212.701 331.422 212.744 331.459 212.774 331.507C212.804 331.554 212.819 331.61 212.817 331.666L212.811 333.334C212.808 333.409 212.776 333.479 212.723 333.53C212.669 333.582 212.597 333.61 212.523 333.61L212.523 333.6Z" fill="black"/>
<path d="M226.374 382.061L218.652 379.522C218.581 380.491 218.647 381.465 218.848 382.416C219.143 382.852 205.685 384.872 205.72 386.166C205.731 386.534 205.861 386.889 206.092 387.177C206.322 387.465 206.64 387.67 206.997 387.761C206.997 387.761 204.299 388.323 205.015 389.629C205.206 390 205.486 390.318 205.83 390.555C206.173 390.793 206.57 390.942 206.984 390.99C206.984 390.99 204.333 392.263 206.973 393.952C209.612 395.641 222.603 396.66 226.787 392.529C229.86 389.49 226.384 382.1 226.384 382.1L226.374 382.061Z" fill="#F48462"/>
<path d="M218.898 332.095C218.898 332.095 214.377 331.702 212.216 328.997C210.964 327.364 210 325.531 209.363 323.575C208.582 324.364 207.913 325.259 207.378 326.233C206.796 327.253 206.286 328.314 205.855 329.407C205.855 329.407 203.835 323.217 209.385 320.701C211.611 319.713 214.133 319.621 216.426 320.443C218.719 321.264 220.608 322.937 221.701 325.114C223.386 328.567 218.918 332.095 218.918 332.095L218.898 332.095Z" fill="black"/>
<path d="M222.341 378.065L222.619 395.337C222.619 395.337 229.082 396.409 238.033 390.461C250.468 382.225 251.25 376.56 251.25 376.56L234.203 372.543L222.332 378.006L222.341 378.065Z" fill="#F7B369"/>
<path d="M206.986 388.047C206.92 388.034 206.861 387.999 206.819 387.948C206.777 387.896 206.754 387.831 206.754 387.765C206.754 387.698 206.778 387.633 206.82 387.582C206.863 387.531 206.923 387.496 206.988 387.484L214.684 386.626C214.759 386.618 214.833 386.639 214.892 386.686C214.951 386.732 214.99 386.8 214.999 386.874C215.007 386.949 214.986 387.023 214.939 387.082C214.893 387.141 214.825 387.179 214.751 387.189L207.055 388.047L206.986 388.047Z" fill="black"/>
<path d="M214.666 391.307L206.973 391.276C206.932 391.284 206.889 391.282 206.849 391.271C206.808 391.261 206.77 391.241 206.738 391.214C206.705 391.187 206.68 391.153 206.662 391.115C206.644 391.077 206.635 391.036 206.635 390.993C206.635 390.951 206.645 390.91 206.663 390.872C206.681 390.834 206.707 390.8 206.74 390.773C206.772 390.747 206.81 390.727 206.851 390.717C206.892 390.707 206.934 390.705 206.976 390.713L214.668 390.744C214.733 390.756 214.792 390.791 214.835 390.843C214.877 390.894 214.9 390.959 214.9 391.026C214.9 391.093 214.876 391.157 214.833 391.209C214.791 391.26 214.731 391.294 214.666 391.307Z" fill="black"/>
<path d="M219.933 377.789C219.871 377.785 219.813 377.762 219.766 377.722C219.719 377.683 219.685 377.629 219.671 377.569C219.657 377.509 219.663 377.446 219.687 377.39C219.711 377.333 219.753 377.286 219.807 377.255C220.252 377.04 230.69 371.887 236.043 371.523C236.119 371.52 236.192 371.546 236.249 371.596C236.306 371.646 236.341 371.716 236.348 371.791C236.351 371.828 236.346 371.866 236.334 371.902C236.322 371.937 236.303 371.97 236.278 371.999C236.253 372.027 236.223 372.05 236.189 372.067C236.155 372.083 236.118 372.093 236.081 372.096C230.806 372.45 220.17 377.721 220.061 377.77L219.933 377.769L219.933 377.789Z" fill="white"/>
<path d="M231.779 368.583C230.16 368.577 228.41 371.532 227.484 373.503C229.981 371.449 232.261 369.177 232.085 368.643C232.085 368.643 232.006 368.584 231.829 368.573L231.779 368.583ZM226.768 374.745L226.601 374.685C226.552 374.648 226.516 374.597 226.498 374.538C226.481 374.479 226.482 374.416 226.503 374.359C226.603 374.102 229.046 368.009 231.782 368.02L231.851 368.02C232.374 368.022 232.561 368.28 232.629 368.478C233.039 369.743 228.383 373.546 226.946 374.676L226.768 374.735L226.768 374.745Z" fill="white"/>
<path d="M231.319 425.045L230.767 424.914C230.767 424.737 235.133 407.078 241.171 398.294L241.634 398.611C235.675 407.307 231.359 424.877 231.309 425.055L231.319 425.045Z" fill="#6876AA"/>
<path d="M235.946 398.638C235.895 398.636 235.844 398.644 235.796 398.663C235.749 398.681 235.705 398.71 235.669 398.746C234.916 399.474 235.652 403.199 236.382 405.878C236.872 404.32 237.764 401.025 237.01 399.433C236.938 399.26 236.831 399.105 236.695 398.977C236.559 398.849 236.398 398.751 236.223 398.689C236.134 398.658 236.04 398.641 235.946 398.638ZM236.335 407.695L236.091 406.894C235.867 406.153 233.918 399.647 235.276 398.33C235.422 398.186 235.608 398.092 235.81 398.059C236.012 398.026 236.219 398.057 236.402 398.147C236.645 398.228 236.869 398.357 237.06 398.528C237.252 398.699 237.406 398.906 237.514 399.138C238.611 401.463 236.695 406.65 236.615 406.867L236.325 407.646L236.335 407.695Z" fill="#6876AA"/>
<path d="M204.698 417.267C190.278 412.994 163.597 415.387 163.33 415.415L163.273 414.852C163.54 414.853 190.33 412.431 204.858 416.735L204.698 417.277L204.698 417.267Z" fill="#6876AA"/>
<path d="M170.187 411.996C170.012 411.977 169.835 412 169.671 412.065C169.507 412.13 169.362 412.234 169.247 412.368C169.108 412.555 169.157 412.654 169.177 412.693C169.549 413.455 172.707 413.912 175.165 414.08C173.53 413.086 171.451 412.001 170.187 411.996ZM177.088 414.739L176.101 414.735C174.975 414.731 169.298 414.402 168.603 412.977C168.535 412.832 168.511 412.67 168.532 412.51C168.554 412.351 168.621 412.202 168.725 412.079C170.204 410.021 175.631 413.785 176.281 414.222L177.059 414.768L177.088 414.739Z" fill="#6876AA"/>
<path d="M220.129 325.533C220.129 325.533 218.858 317.292 225.892 316.48C232.926 315.669 231.992 329.598 222.938 329.385C213.884 329.171 220.129 325.533 220.129 325.533Z" fill="black"/>
<path d="M224.271 329.538C224.206 329.537 224.143 329.514 224.093 329.473C224.043 329.431 224.008 329.374 223.995 329.31C223.181 325.486 221.231 324.086 221.211 324.076C221.165 324.028 221.137 323.966 221.131 323.9C221.126 323.834 221.143 323.769 221.181 323.714C221.218 323.659 221.273 323.62 221.337 323.601C221.4 323.583 221.468 323.587 221.529 323.613C221.618 323.672 223.676 325.132 224.548 329.194C224.563 329.267 224.548 329.343 224.507 329.406C224.466 329.468 224.403 329.513 224.33 329.529L224.271 329.538Z" fill="white"/>
<path d="M213.319 329.712L210.772 329.327C210.732 329.326 210.692 329.317 210.655 329.299C210.619 329.282 210.586 329.257 210.56 329.226C210.534 329.195 210.514 329.159 210.503 329.12C210.492 329.081 210.489 329.04 210.495 329C210.501 328.96 210.515 328.921 210.537 328.887C210.558 328.853 210.587 328.823 210.621 328.801C210.655 328.779 210.693 328.764 210.734 328.758C210.774 328.751 210.815 328.754 210.854 328.764L213.351 329.14C213.416 329.152 213.475 329.187 213.518 329.239C213.56 329.29 213.583 329.355 213.583 329.422C213.583 329.489 213.559 329.553 213.516 329.605C213.473 329.656 213.414 329.69 213.348 329.703L213.319 329.712Z" fill="black"/>
<path d="M205.844 329.693C205.775 329.689 205.711 329.661 205.661 329.614C205.612 329.567 205.581 329.504 205.574 329.436C205.567 329.368 205.585 329.299 205.624 329.243C205.663 329.187 205.721 329.147 205.787 329.13L207.457 328.801C207.496 328.785 207.538 328.779 207.58 328.782C207.621 328.785 207.662 328.797 207.699 328.817C207.736 328.837 207.767 328.866 207.792 328.9C207.817 328.933 207.833 328.972 207.841 329.014C207.849 329.055 207.848 329.097 207.838 329.138C207.827 329.178 207.808 329.216 207.782 329.249C207.755 329.281 207.722 329.308 207.684 329.326C207.647 329.344 207.605 329.354 207.563 329.354L205.883 329.683L205.844 329.693Z" fill="black"/>
<path d="M209.272 336.856L209.084 336.776C207.697 335.487 208.933 332.657 208.983 332.539C208.995 332.502 209.016 332.467 209.042 332.438C209.069 332.408 209.102 332.385 209.138 332.369C209.174 332.353 209.214 332.344 209.253 332.344C209.293 332.344 209.333 332.352 209.369 332.368C209.405 332.384 209.438 332.408 209.465 332.437C209.492 332.466 209.512 332.501 209.525 332.538C209.538 332.576 209.543 332.616 209.539 332.656C209.536 332.695 209.524 332.733 209.505 332.768C209.505 332.768 208.379 335.341 209.491 336.363C209.541 336.416 209.569 336.487 209.569 336.56C209.569 336.634 209.54 336.705 209.489 336.758L209.281 336.846L209.272 336.856Z" fill="black"/>
<path d="M211.544 338.997C211.48 338.992 211.419 338.965 211.372 338.92C211.324 338.875 211.294 338.816 211.285 338.751C211.276 338.687 211.289 338.622 211.322 338.566C211.355 338.51 211.407 338.467 211.467 338.444C211.817 338.32 212.128 338.106 212.367 337.822C212.606 337.538 212.764 337.196 212.827 336.83C212.841 336.757 212.884 336.693 212.944 336.651C213.005 336.609 213.08 336.592 213.153 336.604C213.226 336.619 213.29 336.661 213.332 336.722C213.374 336.783 213.391 336.858 213.379 336.931C213.298 337.4 213.092 337.838 212.783 338.2C212.474 338.561 212.073 338.834 211.623 338.988L211.544 338.997Z" fill="black"/>
<path d="M219.594 336.027L219.387 335.938C219.333 335.884 219.304 335.811 219.304 335.735C219.304 335.659 219.335 335.586 219.389 335.533L222.303 332.74C222.328 332.707 222.359 332.679 222.396 332.66C222.432 332.64 222.472 332.629 222.514 332.626C222.555 332.623 222.597 332.63 222.635 332.645C222.674 332.66 222.709 332.683 222.738 332.713C222.766 332.742 222.788 332.778 222.802 332.817C222.816 332.856 222.821 332.898 222.817 332.939C222.813 332.98 222.8 333.02 222.779 333.056C222.758 333.092 222.73 333.123 222.696 333.146L219.782 335.939L219.584 336.017L219.594 336.027Z" fill="black"/>
<path d="M222.529 335.328L220.556 335.053C220.483 335.041 220.418 335.001 220.374 334.942C220.331 334.883 220.311 334.81 220.32 334.737C220.332 334.664 220.372 334.599 220.431 334.555C220.49 334.511 220.564 334.492 220.637 334.501L222.551 334.775C222.617 334.788 222.676 334.823 222.718 334.874C222.761 334.926 222.784 334.991 222.784 335.057C222.783 335.124 222.76 335.189 222.717 335.24C222.674 335.291 222.615 335.326 222.549 335.338L222.529 335.328Z" fill="black"/>
<path d="M213.503 350.628C211.708 350.596 209.932 350.255 208.253 349.62C208.214 349.609 208.176 349.591 208.144 349.565C208.113 349.539 208.086 349.507 208.068 349.47C208.05 349.433 208.04 349.392 208.038 349.351C208.037 349.31 208.045 349.269 208.061 349.231C208.076 349.194 208.1 349.159 208.131 349.132C208.161 349.104 208.197 349.083 208.236 349.07C208.275 349.057 208.316 349.053 208.357 349.058C208.398 349.062 208.437 349.076 208.473 349.097C208.542 349.097 215.699 352.019 219.845 347.542C219.898 347.5 219.966 347.479 220.034 347.482C220.102 347.485 220.167 347.512 220.217 347.559C220.267 347.605 220.298 347.668 220.306 347.736C220.313 347.804 220.296 347.873 220.258 347.929C219.384 348.826 218.331 349.529 217.167 349.991C216.002 350.452 214.754 350.663 213.503 350.608L213.503 350.628Z" fill="white"/>
<path d="M186.091 363.1L185.884 363.01C185.83 362.956 185.801 362.883 185.801 362.808C185.801 362.732 185.832 362.659 185.885 362.605C186.877 361.691 189.672 361.366 189.84 361.357C189.915 361.349 189.99 361.37 190.048 361.417C190.107 361.463 190.146 361.531 190.155 361.605C190.163 361.68 190.142 361.754 190.096 361.813C190.049 361.872 189.981 361.911 189.907 361.92C189.146 362.006 187.032 362.363 186.318 363.022L186.12 363.1L186.091 363.1Z" fill="black"/>
<defs>
<linearGradient id="paint0_linear_222_1331" x1="650.059" y1="345.111" x2="114.026" y2="352.495" gradientUnits="userSpaceOnUse">
<stop stop-color="#594CDA"/>
<stop offset="1" stop-color="#EB427E"/>
</linearGradient>
</defs>
</svg>
