<svg width="46" height="45" viewBox="0 0 46 45" fill="none" xmlns="http://www.w3.org/2000/svg">
<rect width="21.9545" height="5.22727" fill="#EB427E"/>
<rect y="8.36363" width="21.9545" height="5.22727" fill="#EB427E"/>
<rect y="16.7273" width="21.9545" height="5.22727" fill="#EB427E"/>
<rect x="24.0455" y="21.9545" width="21.9545" height="5.22727" transform="rotate(-90 24.0455 21.9545)" fill="#EB427E"/>
<rect x="32.4091" y="21.9545" width="21.9545" height="5.22727" transform="rotate(-90 32.4091 21.9545)" fill="#EB427E"/>
<rect x="40.7727" y="21.9545" width="21.9545" height="5.22727" transform="rotate(-90 40.7727 21.9545)" fill="#EB427E"/>
<rect x="8.36363" y="44.9545" width="20.9091" height="5.22727" transform="rotate(-90 8.36363 44.9545)" fill="#EB427E"/>
<rect y="44.9545" width="20.9091" height="5.22727" transform="rotate(-90 0 44.9545)" fill="#EB427E"/>
<rect x="16.7273" y="44.9545" width="20.9091" height="5.22727" transform="rotate(-90 16.7273 44.9545)" fill="#EB427E"/>
<rect x="46" y="36.9892" width="21.9545" height="4.97835" transform="rotate(180 46 36.9892)" fill="#EB427E"/>
<rect x="46" y="44.9545" width="21.9545" height="4.97835" transform="rotate(180 46 44.9545)" fill="#EB427E"/>
<rect x="46" y="29.0238" width="21.9545" height="4.97835" transform="rotate(180 46 29.0238)" fill="#EB427E"/>
</svg>
