<svg width="1344" height="292" viewBox="0 0 1344 292" fill="none" xmlns="http://www.w3.org/2000/svg">
<path d="M326.96 25.68C326.96 24.48 332.12 23.4 342.44 22.44C353 21.24 361.64 20.64 368.36 20.64C395 20.64 408.92 24.12 410.12 31.08L441.08 189.48L470.24 31.08C471.68 24.12 486.56 20.64 514.88 20.64C521.84 20.64 530.6 21.12 541.16 22.08C551.72 23.04 557 24.12 557 25.32L493.28 263.64C492.32 267.48 485.24 270 472.04 271.2C451.64 273.36 433.04 273.84 416.24 272.64C399.68 271.2 390.92 268.8 389.96 265.44L326.96 25.68ZM733.794 273.72C712.914 273.72 701.634 270.36 699.954 263.64L688.074 217.2H630.834L620.394 261.84C618.954 269.28 607.434 273 585.834 273C574.314 273 565.794 272.4 560.274 271.2C554.754 269.76 551.994 268.68 551.994 267.96L615.714 24.24C615.714 22.32 632.154 21.36 665.034 21.36C697.914 21.36 714.354 22.32 714.354 24.24L776.634 268.32C776.634 270 771.114 271.32 760.074 272.28C749.034 273.24 740.274 273.72 733.794 273.72ZM639.834 171.48H677.634L661.434 96.96H659.274L639.834 171.48ZM903.452 17.76C920.972 17.76 936.332 20.28 949.532 25.32C962.972 30.12 969.692 36.72 969.692 45.12C969.692 53.52 966.452 63.96 959.972 76.44C953.732 88.68 948.452 94.8 944.132 94.8C942.932 94.8 941.492 94.2 939.812 93C938.372 91.56 934.772 90.12 929.012 88.68C923.492 87 918.692 86.16 914.612 86.16C900.692 86.16 889.412 91.08 880.772 100.92C872.372 110.76 868.172 125.88 868.172 146.28C868.172 166.44 872.492 181.44 881.132 191.28C890.012 201.12 901.172 206.04 914.612 206.04C920.132 206.04 926.252 205.32 932.972 203.88C939.932 202.2 944.852 199.92 947.732 197.04C948.212 196.56 949.172 196.32 950.612 196.32C952.052 196.32 954.692 199.08 958.532 204.6C962.612 209.88 966.332 216.96 969.692 225.84C973.052 234.48 974.732 241.2 974.732 246C974.732 255.36 967.532 262.8 953.132 268.32C938.732 273.84 921.692 276.6 902.012 276.6C870.332 276.6 844.292 265.44 823.892 243.12C803.492 220.8 793.292 189.36 793.292 148.8C793.292 108 803.732 75.96 824.612 52.68C845.732 29.4 872.012 17.76 903.452 17.76ZM1171.49 273.72C1150.61 273.72 1139.33 270.36 1137.65 263.64L1125.77 217.2H1068.53L1058.09 261.84C1056.65 269.28 1045.13 273 1023.53 273C1012.01 273 1003.49 272.4 997.969 271.2C992.449 269.76 989.689 268.68 989.689 267.96L1053.41 24.24C1053.41 22.32 1069.85 21.36 1102.73 21.36C1135.61 21.36 1152.05 22.32 1152.05 24.24L1214.33 268.32C1214.33 270 1208.81 271.32 1197.77 272.28C1186.73 273.24 1177.97 273.72 1171.49 273.72ZM1077.53 171.48H1115.33L1099.13 96.96H1096.97L1077.53 171.48Z" fill="#594CDA"/>
<rect y="10" width="133.151" height="31.7027" fill="#EB427E"/>
<rect y="60.7242" width="133.151" height="31.7027" fill="#EB427E"/>
<rect y="111.449" width="133.151" height="31.7027" fill="#EB427E"/>
<rect x="145.832" y="143.151" width="133.151" height="31.7027" transform="rotate(-90 145.832 143.151)" fill="#EB427E"/>
<rect x="196.557" y="143.151" width="133.151" height="31.7027" transform="rotate(-90 196.557 143.151)" fill="#EB427E"/>
<rect x="247.281" y="143.151" width="133.151" height="31.7027" transform="rotate(-90 247.281 143.151)" fill="#EB427E"/>
<rect x="50.7243" y="282.643" width="126.811" height="31.7027" transform="rotate(-90 50.7243 282.643)" fill="#EB427E"/>
<rect y="282.643" width="126.811" height="31.7027" transform="rotate(-90 0 282.643)" fill="#EB427E"/>
<rect x="101.449" y="282.643" width="126.811" height="31.7027" transform="rotate(-90 101.449 282.643)" fill="#EB427E"/>
<rect x="278.984" y="234.334" width="133.151" height="30.1931" transform="rotate(180 278.984 234.334)" fill="#EB427E"/>
<rect x="278.984" y="282.643" width="133.151" height="30.1931" transform="rotate(180 278.984 282.643)" fill="#EB427E"/>
<rect x="278.984" y="186.025" width="133.151" height="30.1931" transform="rotate(180 278.984 186.025)" fill="#EB427E"/>
</svg>
