<svg width="889" height="260" viewBox="0 0 889 260" fill="none" xmlns="http://www.w3.org/2000/svg">
<path d="M0.96 8.67999C0.96 7.47999 6.12 6.39999 16.44 5.43999C27 4.23999 35.64 3.63999 42.36 3.63999C69 3.63999 82.92 7.11999 84.12 14.08L115.08 172.48L144.24 14.08C145.68 7.11999 160.56 3.63999 188.88 3.63999C195.84 3.63999 204.6 4.11999 215.16 5.07999C225.72 6.03999 231 7.11999 231 8.31999L167.28 246.64C166.32 250.48 159.24 253 146.04 254.2C125.64 256.36 107.04 256.84 90.24 255.64C73.68 254.2 64.92 251.8 63.96 248.44L0.96 8.67999ZM407.794 256.72C386.914 256.72 375.634 253.36 373.954 246.64L362.074 200.2H304.834L294.394 244.84C292.954 252.28 281.434 256 259.834 256C248.314 256 239.794 255.4 234.274 254.2C228.754 252.76 225.994 251.68 225.994 250.96L289.714 7.23998C289.714 5.31998 306.154 4.35998 339.034 4.35998C371.914 4.35998 388.354 5.31998 388.354 7.23998L450.634 251.32C450.634 253 445.114 254.32 434.074 255.28C423.034 256.24 414.274 256.72 407.794 256.72ZM313.834 154.48H351.634L335.434 79.96H333.274L313.834 154.48ZM577.452 0.759982C594.972 0.759982 610.332 3.27998 623.532 8.31999C636.972 13.12 643.692 19.72 643.692 28.12C643.692 36.52 640.452 46.96 633.972 59.44C627.732 71.68 622.452 77.8 618.132 77.8C616.932 77.8 615.492 77.2 613.812 76C612.372 74.56 608.772 73.12 603.012 71.68C597.492 70 592.692 69.16 588.612 69.16C574.692 69.16 563.412 74.08 554.772 83.92C546.372 93.76 542.172 108.88 542.172 129.28C542.172 149.44 546.492 164.44 555.132 174.28C564.012 184.12 575.172 189.04 588.612 189.04C594.132 189.04 600.252 188.32 606.972 186.88C613.932 185.2 618.852 182.92 621.732 180.04C622.212 179.56 623.172 179.32 624.612 179.32C626.052 179.32 628.692 182.08 632.532 187.6C636.612 192.88 640.332 199.96 643.692 208.84C647.052 217.48 648.732 224.2 648.732 229C648.732 238.36 641.532 245.8 627.132 251.32C612.732 256.84 595.692 259.6 576.012 259.6C544.332 259.6 518.292 248.44 497.892 226.12C477.492 203.8 467.292 172.36 467.292 131.8C467.292 91 477.732 58.96 498.612 35.68C519.732 12.4 546.012 0.759982 577.452 0.759982ZM845.489 256.72C824.609 256.72 813.329 253.36 811.649 246.64L799.769 200.2H742.529L732.089 244.84C730.649 252.28 719.129 256 697.529 256C686.009 256 677.489 255.4 671.969 254.2C666.449 252.76 663.689 251.68 663.689 250.96L727.409 7.23998C727.409 5.31998 743.849 4.35998 776.729 4.35998C809.609 4.35998 826.049 5.31998 826.049 7.23998L888.329 251.32C888.329 253 882.809 254.32 871.769 255.28C860.729 256.24 851.969 256.72 845.489 256.72ZM751.529 154.48H789.329L773.129 79.96H770.969L751.529 154.48Z" fill="#594CDA"/>
</svg>
