<svg width="26" height="11" viewBox="0 0 26 11" fill="none" xmlns="http://www.w3.org/2000/svg">
<path d="M17.9902 5.50781C18.3783 5.50781 18.7155 5.57422 19.002 5.70703C19.2884 5.83724 19.5098 6.02734 19.666 6.27734C19.8249 6.52734 19.9043 6.83073 19.9043 7.1875C19.9043 7.57812 19.8197 7.91536 19.6504 8.19922C19.4811 8.48047 19.2376 8.69792 18.9199 8.85156C18.6022 9.0026 18.222 9.07812 17.7793 9.07812C17.4824 9.07812 17.2064 9.05208 16.9512 9C16.696 8.94792 16.4811 8.86979 16.3066 8.76562V8.14844C16.4967 8.26302 16.7272 8.35417 16.998 8.42188C17.2689 8.48958 17.5319 8.52344 17.7871 8.52344C18.0762 8.52344 18.3288 8.47786 18.5449 8.38672C18.7637 8.29297 18.9329 8.15234 19.0527 7.96484C19.1751 7.77474 19.2363 7.53646 19.2363 7.25C19.2363 6.86979 19.1191 6.57682 18.8848 6.37109C18.653 6.16276 18.2858 6.05859 17.7832 6.05859C17.6217 6.05859 17.4447 6.07161 17.252 6.09766C17.0592 6.1237 16.9004 6.15234 16.7754 6.18359L16.4473 5.96875L16.666 3.28906H19.5059V3.88281H17.2207L17.0762 5.60547C17.1751 5.58464 17.3027 5.5638 17.459 5.54297C17.6152 5.51953 17.7923 5.50781 17.9902 5.50781Z" fill="#594CDA"/>
<path d="M9.49645 2.27829L8.54035 4.34678L6.40119 4.67955C6.01758 4.73892 5.86384 5.24355 6.14203 5.53257L7.68966 7.14175L7.32362 9.41491C7.25773 9.82579 7.66331 10.1336 8.00299 9.9414L9.91667 8.8681L11.8303 9.9414C12.17 10.132 12.5756 9.82579 12.5097 9.41491L12.1437 7.14175L13.6913 5.53257C13.9695 5.24355 13.8158 4.73892 13.4321 4.67955L11.293 4.34678L10.3369 2.27829C10.1656 1.90958 9.66922 1.9049 9.49645 2.27829Z" fill="#594CDA"/>
</svg>
