<svg width="26" height="11" viewBox="0 0 26 11" fill="none" xmlns="http://www.w3.org/2000/svg">
<path d="M20.2129 7.67578H19.3574V9H18.7246V7.67578H15.9629V7.12891L18.6816 3.25781H19.3574V7.08984H20.2129V7.67578ZM18.7246 7.08984V5.22266C18.7246 5.07943 18.7259 4.95052 18.7285 4.83594C18.7311 4.71875 18.735 4.61068 18.7402 4.51172C18.7454 4.41016 18.7493 4.3138 18.752 4.22266C18.7572 4.13151 18.7611 4.04167 18.7637 3.95312H18.7324C18.6829 4.05729 18.6257 4.16797 18.5605 4.28516C18.498 4.39974 18.4342 4.5026 18.3691 4.59375L16.6074 7.08984H18.7246Z" fill="#594CDA"/>
<path d="M9.49645 2.27829L8.54035 4.34678L6.40119 4.67955C6.01758 4.73892 5.86384 5.24355 6.14203 5.53257L7.68966 7.14175L7.32362 9.41491C7.25773 9.82579 7.66331 10.1336 8.00299 9.9414L9.91667 8.8681L11.8303 9.9414C12.17 10.132 12.5756 9.82579 12.5097 9.41491L12.1437 7.14175L13.6913 5.53257C13.9695 5.24355 13.8158 4.73892 13.4321 4.67955L11.293 4.34678L10.3369 2.27829C10.1656 1.90958 9.66922 1.9049 9.49645 2.27829Z" fill="#594CDA"/>
</svg>
