<svg width="26" height="11" viewBox="0 0 26 11" fill="none" xmlns="http://www.w3.org/2000/svg">
<path d="M18.4219 7.67578H17.5664V9H16.9336V7.67578H14.1719V7.12891L16.8906 3.25781H17.5664V7.08984H18.4219V7.67578ZM16.9336 7.08984V5.22266C16.9336 5.07943 16.9349 4.95052 16.9375 4.83594C16.9401 4.71875 16.944 4.61068 16.9492 4.51172C16.9544 4.41016 16.9583 4.3138 16.9609 4.22266C16.9661 4.13151 16.9701 4.04167 16.9727 3.95312H16.9414C16.8919 4.05729 16.8346 4.16797 16.7695 4.28516C16.707 4.39974 16.6432 4.5026 16.5781 4.59375L14.8164 7.08984H16.9336ZM19.1641 8.59375C19.1641 8.41146 19.2083 8.28255 19.2969 8.20703C19.3854 8.12891 19.4935 8.08984 19.6211 8.08984C19.7539 8.08984 19.8659 8.12891 19.957 8.20703C20.0482 8.28255 20.0938 8.41146 20.0938 8.59375C20.0938 8.77344 20.0482 8.90495 19.957 8.98828C19.8659 9.06901 19.7539 9.10938 19.6211 9.10938C19.4935 9.10938 19.3854 9.06901 19.2969 8.98828C19.2083 8.90495 19.1641 8.77344 19.1641 8.59375ZM22.8789 5.50781C23.2669 5.50781 23.6042 5.57422 23.8906 5.70703C24.1771 5.83724 24.3984 6.02734 24.5547 6.27734C24.7135 6.52734 24.793 6.83073 24.793 7.1875C24.793 7.57812 24.7083 7.91536 24.5391 8.19922C24.3698 8.48047 24.1263 8.69792 23.8086 8.85156C23.4909 9.0026 23.1107 9.07812 22.668 9.07812C22.3711 9.07812 22.0951 9.05208 21.8398 9C21.5846 8.94792 21.3698 8.86979 21.1953 8.76562V8.14844C21.3854 8.26302 21.6159 8.35417 21.8867 8.42188C22.1576 8.48958 22.4206 8.52344 22.6758 8.52344C22.9648 8.52344 23.2174 8.47786 23.4336 8.38672C23.6523 8.29297 23.8216 8.15234 23.9414 7.96484C24.0638 7.77474 24.125 7.53646 24.125 7.25C24.125 6.86979 24.0078 6.57682 23.7734 6.37109C23.5417 6.16276 23.1745 6.05859 22.6719 6.05859C22.5104 6.05859 22.3333 6.07161 22.1406 6.09766C21.9479 6.1237 21.7891 6.15234 21.6641 6.18359L21.3359 5.96875L21.5547 3.28906H24.3945V3.88281H22.1094L21.9648 5.60547C22.0638 5.58464 22.1914 5.5638 22.3477 5.54297C22.5039 5.51953 22.681 5.50781 22.8789 5.50781Z" fill="#594CDA"/>
<path d="M7.49645 1.27829L6.54035 3.34678L4.40119 3.67955C4.01758 3.73892 3.86384 4.24355 4.14203 4.53257L5.68966 6.14175L5.32362 8.41491C5.25773 8.82579 5.66331 9.13357 6.00299 8.9414L7.91667 7.8681L9.83034 8.9414C10.17 9.132 10.5756 8.82579 10.5097 8.41491L10.1437 6.14175L11.6913 4.53257C11.9695 4.24355 11.8158 3.73892 11.4321 3.67955L9.29299 3.34678L8.33688 1.27829C8.16558 0.909584 7.66922 0.904897 7.49645 1.27829Z" fill="#594CDA"/>
</svg>
